ISO-10303-21;
HEADER;
/* Generated by software containing ST-Developer
 * from STEP Tools, Inc. (www.steptools.com) 
 */
/* OPTION: using custom renumber hook */

FILE_DESCRIPTION(
/* description */ ('STEP AP214'),
/* implementation_level */ '2;1');

FILE_NAME(
/* name */ '6891518aeceb015fcaadaa0e',
/* time_stamp */ '2025-08-05T00:34:18Z',
/* author */ (''),
/* organization */ (''),
/* preprocessor_version */ 'ST-DEVELOPER v20',
/* originating_system */ 'ONSHAPE BY PTC INC, 1.201',
/* authorisation */ '  ');

FILE_SCHEMA (('AUTOMOTIVE_DESIGN {1 0 10303 214 3 1 1}'));
ENDSEC;

DATA;
#10=PROPERTY_DEFINITION_REPRESENTATION(#14,#12);
#11=PROPERTY_DEFINITION_REPRESENTATION(#15,#13);
#12=REPRESENTATION('',(#16),#1917);
#13=REPRESENTATION('',(#17),#1917);
#14=PROPERTY_DEFINITION('pmi validation property','',#1922);
#15=PROPERTY_DEFINITION('pmi validation property','',#1922);
#16=VALUE_REPRESENTATION_ITEM('number of annotations',COUNT_MEASURE(0.));
#17=VALUE_REPRESENTATION_ITEM('number of views',COUNT_MEASURE(0.));
#18=SHAPE_REPRESENTATION_RELATIONSHIP('','',#1265,#19);
#19=ADVANCED_BREP_SHAPE_REPRESENTATION('',(#1263),#1917);
#20=LINE('',#1698,#120);
#21=LINE('',#1701,#121);
#22=LINE('',#1703,#122);
#23=LINE('',#1705,#123);
#24=LINE('',#1707,#124);
#25=LINE('',#1709,#125);
#26=LINE('',#1711,#126);
#27=LINE('',#1713,#127);
#28=LINE('',#1715,#128);
#29=LINE('',#1718,#129);
#30=LINE('',#1720,#130);
#31=LINE('',#1722,#131);
#32=LINE('',#1724,#132);
#33=LINE('',#1727,#133);
#34=LINE('',#1729,#134);
#35=LINE('',#1731,#135);
#36=LINE('',#1733,#136);
#37=LINE('',#1736,#137);
#38=LINE('',#1737,#138);
#39=LINE('',#1739,#139);
#40=LINE('',#1742,#140);
#41=LINE('',#1744,#141);
#42=LINE('',#1746,#142);
#43=LINE('',#1748,#143);
#44=LINE('',#1750,#144);
#45=LINE('',#1752,#145);
#46=LINE('',#1754,#146);
#47=LINE('',#1755,#147);
#48=LINE('',#1757,#148);
#49=LINE('',#1760,#149);
#50=LINE('',#1761,#150);
#51=LINE('',#1763,#151);
#52=LINE('',#1766,#152);
#53=LINE('',#1767,#153);
#54=LINE('',#1769,#154);
#55=LINE('',#1771,#155);
#56=LINE('',#1773,#156);
#57=LINE('',#1774,#157);
#58=LINE('',#1785,#158);
#59=LINE('',#1788,#159);
#60=LINE('',#1790,#160);
#61=LINE('',#1792,#161);
#62=LINE('',#1806,#162);
#63=LINE('',#1809,#163);
#64=LINE('',#1811,#164);
#65=LINE('',#1812,#165);
#66=LINE('',#1813,#166);
#67=LINE('',#1815,#167);
#68=LINE('',#1817,#168);
#69=LINE('',#1820,#169);
#70=LINE('',#1822,#170);
#71=LINE('',#1824,#171);
#72=LINE('',#1826,#172);
#73=LINE('',#1828,#173);
#74=LINE('',#1830,#174);
#75=LINE('',#1832,#175);
#76=LINE('',#1833,#176);
#77=LINE('',#1835,#177);
#78=LINE('',#1837,#178);
#79=LINE('',#1838,#179);
#80=LINE('',#1839,#180);
#81=LINE('',#1841,#181);
#82=LINE('',#1843,#182);
#83=LINE('',#1845,#183);
#84=LINE('',#1847,#184);
#85=LINE('',#1849,#185);
#86=LINE('',#1851,#186);
#87=LINE('',#1853,#187);
#88=LINE('',#1855,#188);
#89=LINE('',#1857,#189);
#90=LINE('',#1859,#190);
#91=LINE('',#1861,#191);
#92=LINE('',#1863,#192);
#93=LINE('',#1865,#193);
#94=LINE('',#1866,#194);
#95=LINE('',#1868,#195);
#96=LINE('',#1870,#196);
#97=LINE('',#1872,#197);
#98=LINE('',#1874,#198);
#99=LINE('',#1876,#199);
#100=LINE('',#1878,#200);
#101=LINE('',#1880,#201);
#102=LINE('',#1882,#202);
#103=LINE('',#1883,#203);
#104=LINE('',#1884,#204);
#105=LINE('',#1886,#205);
#106=LINE('',#1888,#206);
#107=LINE('',#1890,#207);
#108=LINE('',#1892,#208);
#109=LINE('',#1894,#209);
#110=LINE('',#1896,#210);
#111=LINE('',#1898,#211);
#112=LINE('',#1900,#212);
#113=LINE('',#1902,#213);
#114=LINE('',#1904,#214);
#115=LINE('',#1906,#215);
#116=LINE('',#1908,#216);
#117=LINE('',#1910,#217);
#118=LINE('',#1912,#218);
#119=LINE('',#1914,#219);
#120=VECTOR('',#1443,1.);
#121=VECTOR('',#1444,1.);
#122=VECTOR('',#1445,1.);
#123=VECTOR('',#1446,1.);
#124=VECTOR('',#1447,1.);
#125=VECTOR('',#1448,1.);
#126=VECTOR('',#1449,1.);
#127=VECTOR('',#1450,1.);
#128=VECTOR('',#1453,1.);
#129=VECTOR('',#1454,1.);
#130=VECTOR('',#1455,1.);
#131=VECTOR('',#1456,1.);
#132=VECTOR('',#1459,1.);
#133=VECTOR('',#1460,1.);
#134=VECTOR('',#1461,1.);
#135=VECTOR('',#1462,1.);
#136=VECTOR('',#1465,1.);
#137=VECTOR('',#1466,1.);
#138=VECTOR('',#1467,1.);
#139=VECTOR('',#1470,1.);
#140=VECTOR('',#1471,1.);
#141=VECTOR('',#1472,1.);
#142=VECTOR('',#1473,1.);
#143=VECTOR('',#1476,1.);
#144=VECTOR('',#1477,1.);
#145=VECTOR('',#1478,1.);
#146=VECTOR('',#1481,1.);
#147=VECTOR('',#1482,1.);
#148=VECTOR('',#1485,1.);
#149=VECTOR('',#1486,1.);
#150=VECTOR('',#1487,1.);
#151=VECTOR('',#1490,1.);
#152=VECTOR('',#1491,1.);
#153=VECTOR('',#1492,1.);
#154=VECTOR('',#1495,1.);
#155=VECTOR('',#1496,1.);
#156=VECTOR('',#1497,1.);
#157=VECTOR('',#1498,1.);
#158=VECTOR('',#1513,1.);
#159=VECTOR('',#1514,1.);
#160=VECTOR('',#1515,1.);
#161=VECTOR('',#1516,1.);
#162=VECTOR('',#1535,1.);
#163=VECTOR('',#1536,1.);
#164=VECTOR('',#1537,1.);
#165=VECTOR('',#1538,1.);
#166=VECTOR('',#1539,1.);
#167=VECTOR('',#1540,1.);
#168=VECTOR('',#1543,1.);
#169=VECTOR('',#1544,1.);
#170=VECTOR('',#1545,1.);
#171=VECTOR('',#1546,1.);
#172=VECTOR('',#1549,1.);
#173=VECTOR('',#1550,1.);
#174=VECTOR('',#1551,1.);
#175=VECTOR('',#1554,1.);
#176=VECTOR('',#1555,1.);
#177=VECTOR('',#1558,1.);
#178=VECTOR('',#1559,1.);
#179=VECTOR('',#1560,1.);
#180=VECTOR('',#1561,1.);
#181=VECTOR('',#1562,1.);
#182=VECTOR('',#1565,1.);
#183=VECTOR('',#1566,1.);
#184=VECTOR('',#1567,1.);
#185=VECTOR('',#1570,1.);
#186=VECTOR('',#1571,1.);
#187=VECTOR('',#1572,1.);
#188=VECTOR('',#1575,1.);
#189=VECTOR('',#1576,1.);
#190=VECTOR('',#1577,1.);
#191=VECTOR('',#1580,1.);
#192=VECTOR('',#1581,1.);
#193=VECTOR('',#1584,1.);
#194=VECTOR('',#1585,1.);
#195=VECTOR('',#1586,1.);
#196=VECTOR('',#1589,1.);
#197=VECTOR('',#1590,1.);
#198=VECTOR('',#1591,1.);
#199=VECTOR('',#1594,1.);
#200=VECTOR('',#1595,1.);
#201=VECTOR('',#1596,1.);
#202=VECTOR('',#1599,1.);
#203=VECTOR('',#1600,1.);
#204=VECTOR('',#1601,1.);
#205=VECTOR('',#1602,1.);
#206=VECTOR('',#1605,1.);
#207=VECTOR('',#1608,1.);
#208=VECTOR('',#1611,1.);
#209=VECTOR('',#1612,1.);
#210=VECTOR('',#1613,1.);
#211=VECTOR('',#1614,1.);
#212=VECTOR('',#1617,1.);
#213=VECTOR('',#1618,1.);
#214=VECTOR('',#1619,1.);
#215=VECTOR('',#1622,1.);
#216=VECTOR('',#1623,1.);
#217=VECTOR('',#1626,1.);
#218=VECTOR('',#1627,1.);
#219=VECTOR('',#1630,1.);
#220=CYLINDRICAL_SURFACE('',#1281,0.00025);
#221=CYLINDRICAL_SURFACE('',#1283,0.00025);
#222=CYLINDRICAL_SURFACE('',#1285,0.00025);
#223=CYLINDRICAL_SURFACE('',#1287,0.00025);
#224=CYLINDRICAL_SURFACE('',#1289,0.00025);
#225=CYLINDRICAL_SURFACE('',#1291,0.00025);
#226=CYLINDRICAL_SURFACE('',#1293,0.00025);
#227=CYLINDRICAL_SURFACE('',#1319,0.00025);
#228=CYLINDRICAL_SURFACE('',#1321,0.00025);
#229=CYLINDRICAL_SURFACE('',#1323,0.00025);
#230=CYLINDRICAL_SURFACE('',#1326,0.00025);
#231=CYLINDRICAL_SURFACE('',#1328,0.00025);
#232=CYLINDRICAL_SURFACE('',#1330,0.00025);
#233=CYLINDRICAL_SURFACE('',#1332,0.00025);
#234=OVER_RIDING_STYLED_ITEM('',(#1059),#1000,#1057);
#235=OVER_RIDING_STYLED_ITEM('',(#1060),#1017,#1057);
#236=OVER_RIDING_STYLED_ITEM('',(#1061),#1018,#1057);
#237=OVER_RIDING_STYLED_ITEM('',(#1062),#1019,#1057);
#238=OVER_RIDING_STYLED_ITEM('',(#1063),#1020,#1057);
#239=OVER_RIDING_STYLED_ITEM('',(#1064),#1021,#1057);
#240=OVER_RIDING_STYLED_ITEM('',(#1065),#1022,#1057);
#241=OVER_RIDING_STYLED_ITEM('',(#1066),#1023,#1057);
#242=OVER_RIDING_STYLED_ITEM('',(#1067),#1024,#1057);
#243=OVER_RIDING_STYLED_ITEM('',(#1068),#1025,#1057);
#244=OVER_RIDING_STYLED_ITEM('',(#1069),#1026,#1057);
#245=OVER_RIDING_STYLED_ITEM('',(#1070),#1030,#1057);
#246=OVER_RIDING_STYLED_ITEM('',(#1071),#1035,#1057);
#247=OVER_RIDING_STYLED_ITEM('',(#1072),#1036,#1057);
#248=OVER_RIDING_STYLED_ITEM('',(#1073),#1037,#1057);
#249=OVER_RIDING_STYLED_ITEM('',(#1074),#1038,#1057);
#250=OVER_RIDING_STYLED_ITEM('',(#1075),#1039,#1057);
#251=OVER_RIDING_STYLED_ITEM('',(#1076),#1040,#1057);
#252=OVER_RIDING_STYLED_ITEM('',(#1077),#1041,#1057);
#253=OVER_RIDING_STYLED_ITEM('',(#1078),#1042,#1057);
#254=OVER_RIDING_STYLED_ITEM('',(#1079),#1043,#1057);
#255=OVER_RIDING_STYLED_ITEM('',(#1080),#1044,#1057);
#256=OVER_RIDING_STYLED_ITEM('',(#1081),#1045,#1057);
#257=OVER_RIDING_STYLED_ITEM('',(#1082),#1046,#1057);
#258=OVER_RIDING_STYLED_ITEM('',(#1083),#1047,#1057);
#259=OVER_RIDING_STYLED_ITEM('',(#1084),#1048,#1057);
#260=OVER_RIDING_STYLED_ITEM('',(#1085),#1049,#1057);
#261=OVER_RIDING_STYLED_ITEM('',(#1086),#1050,#1057);
#262=OVER_RIDING_STYLED_ITEM('',(#1087),#1051,#1057);
#263=OVER_RIDING_STYLED_ITEM('',(#1088),#1052,#1057);
#264=OVER_RIDING_STYLED_ITEM('',(#1089),#1053,#1057);
#265=OVER_RIDING_STYLED_ITEM('',(#1090),#1054,#1057);
#266=OVER_RIDING_STYLED_ITEM('',(#1091),#1055,#1057);
#267=DRAUGHTING_PRE_DEFINED_COLOUR('white');
#268=ORIENTED_EDGE('',*,*,#524,.T.);
#269=ORIENTED_EDGE('',*,*,#525,.T.);
#270=ORIENTED_EDGE('',*,*,#526,.T.);
#271=ORIENTED_EDGE('',*,*,#527,.T.);
#272=ORIENTED_EDGE('',*,*,#528,.T.);
#273=ORIENTED_EDGE('',*,*,#529,.T.);
#274=ORIENTED_EDGE('',*,*,#530,.T.);
#275=ORIENTED_EDGE('',*,*,#524,.F.);
#276=ORIENTED_EDGE('',*,*,#531,.T.);
#277=ORIENTED_EDGE('',*,*,#525,.F.);
#278=ORIENTED_EDGE('',*,*,#532,.T.);
#279=ORIENTED_EDGE('',*,*,#526,.F.);
#280=ORIENTED_EDGE('',*,*,#533,.T.);
#281=ORIENTED_EDGE('',*,*,#527,.F.);
#282=ORIENTED_EDGE('',*,*,#534,.T.);
#283=ORIENTED_EDGE('',*,*,#528,.F.);
#284=ORIENTED_EDGE('',*,*,#535,.T.);
#285=ORIENTED_EDGE('',*,*,#529,.F.);
#286=ORIENTED_EDGE('',*,*,#536,.T.);
#287=ORIENTED_EDGE('',*,*,#530,.F.);
#288=ORIENTED_EDGE('',*,*,#537,.T.);
#289=ORIENTED_EDGE('',*,*,#538,.T.);
#290=ORIENTED_EDGE('',*,*,#539,.T.);
#291=ORIENTED_EDGE('',*,*,#540,.T.);
#292=ORIENTED_EDGE('',*,*,#541,.T.);
#293=ORIENTED_EDGE('',*,*,#542,.T.);
#294=ORIENTED_EDGE('',*,*,#543,.T.);
#295=ORIENTED_EDGE('',*,*,#544,.T.);
#296=ORIENTED_EDGE('',*,*,#545,.T.);
#297=ORIENTED_EDGE('',*,*,#546,.T.);
#298=ORIENTED_EDGE('',*,*,#547,.T.);
#299=ORIENTED_EDGE('',*,*,#548,.T.);
#300=ORIENTED_EDGE('',*,*,#549,.F.);
#301=ORIENTED_EDGE('',*,*,#550,.T.);
#302=ORIENTED_EDGE('',*,*,#551,.T.);
#303=ORIENTED_EDGE('',*,*,#552,.F.);
#304=ORIENTED_EDGE('',*,*,#553,.F.);
#305=ORIENTED_EDGE('',*,*,#554,.F.);
#306=ORIENTED_EDGE('',*,*,#555,.T.);
#307=ORIENTED_EDGE('',*,*,#556,.F.);
#308=ORIENTED_EDGE('',*,*,#557,.F.);
#309=ORIENTED_EDGE('',*,*,#558,.F.);
#310=ORIENTED_EDGE('',*,*,#559,.T.);
#311=ORIENTED_EDGE('',*,*,#560,.T.);
#312=ORIENTED_EDGE('',*,*,#561,.T.);
#313=ORIENTED_EDGE('',*,*,#562,.F.);
#314=ORIENTED_EDGE('',*,*,#560,.F.);
#315=ORIENTED_EDGE('',*,*,#563,.T.);
#316=ORIENTED_EDGE('',*,*,#564,.F.);
#317=ORIENTED_EDGE('',*,*,#565,.F.);
#318=ORIENTED_EDGE('',*,*,#566,.T.);
#319=ORIENTED_EDGE('',*,*,#567,.F.);
#320=ORIENTED_EDGE('',*,*,#568,.F.);
#321=ORIENTED_EDGE('',*,*,#569,.F.);
#322=ORIENTED_EDGE('',*,*,#570,.T.);
#323=ORIENTED_EDGE('',*,*,#558,.T.);
#324=ORIENTED_EDGE('',*,*,#555,.F.);
#325=ORIENTED_EDGE('',*,*,#571,.F.);
#326=ORIENTED_EDGE('',*,*,#564,.T.);
#327=ORIENTED_EDGE('',*,*,#572,.F.);
#328=ORIENTED_EDGE('',*,*,#573,.T.);
#329=ORIENTED_EDGE('',*,*,#574,.F.);
#330=ORIENTED_EDGE('',*,*,#546,.F.);
#331=ORIENTED_EDGE('',*,*,#575,.T.);
#332=ORIENTED_EDGE('',*,*,#576,.T.);
#333=ORIENTED_EDGE('',*,*,#577,.F.);
#334=ORIENTED_EDGE('',*,*,#550,.F.);
#335=ORIENTED_EDGE('',*,*,#578,.T.);
#336=ORIENTED_EDGE('',*,*,#579,.T.);
#337=ORIENTED_EDGE('',*,*,#569,.T.);
#338=ORIENTED_EDGE('',*,*,#580,.T.);
#339=ORIENTED_EDGE('',*,*,#581,.T.);
#340=ORIENTED_EDGE('',*,*,#552,.T.);
#341=ORIENTED_EDGE('',*,*,#582,.T.);
#342=ORIENTED_EDGE('',*,*,#534,.F.);
#343=ORIENTED_EDGE('',*,*,#537,.F.);
#344=ORIENTED_EDGE('',*,*,#533,.F.);
#345=ORIENTED_EDGE('',*,*,#532,.F.);
#346=ORIENTED_EDGE('',*,*,#531,.F.);
#347=ORIENTED_EDGE('',*,*,#535,.F.);
#348=ORIENTED_EDGE('',*,*,#536,.F.);
#349=ORIENTED_EDGE('',*,*,#538,.F.);
#350=ORIENTED_EDGE('',*,*,#583,.T.);
#351=ORIENTED_EDGE('',*,*,#539,.F.);
#352=ORIENTED_EDGE('',*,*,#584,.T.);
#353=ORIENTED_EDGE('',*,*,#540,.F.);
#354=ORIENTED_EDGE('',*,*,#585,.T.);
#355=ORIENTED_EDGE('',*,*,#586,.T.);
#356=ORIENTED_EDGE('',*,*,#587,.F.);
#357=ORIENTED_EDGE('',*,*,#588,.F.);
#358=ORIENTED_EDGE('',*,*,#589,.T.);
#359=ORIENTED_EDGE('',*,*,#541,.F.);
#360=ORIENTED_EDGE('',*,*,#590,.T.);
#361=ORIENTED_EDGE('',*,*,#542,.F.);
#362=ORIENTED_EDGE('',*,*,#591,.T.);
#363=ORIENTED_EDGE('',*,*,#543,.F.);
#364=ORIENTED_EDGE('',*,*,#592,.T.);
#365=ORIENTED_EDGE('',*,*,#544,.F.);
#366=ORIENTED_EDGE('',*,*,#593,.T.);
#367=ORIENTED_EDGE('',*,*,#594,.F.);
#368=ORIENTED_EDGE('',*,*,#595,.F.);
#369=ORIENTED_EDGE('',*,*,#596,.F.);
#370=ORIENTED_EDGE('',*,*,#548,.F.);
#371=ORIENTED_EDGE('',*,*,#597,.F.);
#372=ORIENTED_EDGE('',*,*,#566,.F.);
#373=ORIENTED_EDGE('',*,*,#598,.T.);
#374=ORIENTED_EDGE('',*,*,#599,.F.);
#375=ORIENTED_EDGE('',*,*,#600,.T.);
#376=ORIENTED_EDGE('',*,*,#601,.T.);
#377=ORIENTED_EDGE('',*,*,#602,.F.);
#378=ORIENTED_EDGE('',*,*,#603,.F.);
#379=ORIENTED_EDGE('',*,*,#602,.T.);
#380=ORIENTED_EDGE('',*,*,#604,.T.);
#381=ORIENTED_EDGE('',*,*,#605,.F.);
#382=ORIENTED_EDGE('',*,*,#606,.F.);
#383=ORIENTED_EDGE('',*,*,#595,.T.);
#384=ORIENTED_EDGE('',*,*,#607,.T.);
#385=ORIENTED_EDGE('',*,*,#600,.F.);
#386=ORIENTED_EDGE('',*,*,#608,.F.);
#387=ORIENTED_EDGE('',*,*,#609,.T.);
#388=ORIENTED_EDGE('',*,*,#553,.T.);
#389=ORIENTED_EDGE('',*,*,#610,.F.);
#390=ORIENTED_EDGE('',*,*,#561,.F.);
#391=ORIENTED_EDGE('',*,*,#611,.F.);
#392=ORIENTED_EDGE('',*,*,#605,.T.);
#393=ORIENTED_EDGE('',*,*,#612,.F.);
#394=ORIENTED_EDGE('',*,*,#613,.T.);
#395=ORIENTED_EDGE('',*,*,#596,.T.);
#396=ORIENTED_EDGE('',*,*,#608,.T.);
#397=ORIENTED_EDGE('',*,*,#603,.T.);
#398=ORIENTED_EDGE('',*,*,#606,.T.);
#399=ORIENTED_EDGE('',*,*,#611,.T.);
#400=ORIENTED_EDGE('',*,*,#563,.F.);
#401=ORIENTED_EDGE('',*,*,#559,.F.);
#402=ORIENTED_EDGE('',*,*,#570,.F.);
#403=ORIENTED_EDGE('',*,*,#579,.F.);
#404=ORIENTED_EDGE('',*,*,#614,.F.);
#405=ORIENTED_EDGE('',*,*,#615,.T.);
#406=ORIENTED_EDGE('',*,*,#616,.T.);
#407=ORIENTED_EDGE('',*,*,#578,.F.);
#408=ORIENTED_EDGE('',*,*,#549,.T.);
#409=ORIENTED_EDGE('',*,*,#617,.T.);
#410=ORIENTED_EDGE('',*,*,#575,.F.);
#411=ORIENTED_EDGE('',*,*,#545,.F.);
#412=ORIENTED_EDGE('',*,*,#618,.F.);
#413=ORIENTED_EDGE('',*,*,#619,.T.);
#414=ORIENTED_EDGE('',*,*,#620,.T.);
#415=ORIENTED_EDGE('',*,*,#589,.F.);
#416=ORIENTED_EDGE('',*,*,#621,.F.);
#417=ORIENTED_EDGE('',*,*,#622,.T.);
#418=ORIENTED_EDGE('',*,*,#623,.T.);
#419=ORIENTED_EDGE('',*,*,#624,.T.);
#420=ORIENTED_EDGE('',*,*,#621,.T.);
#421=ORIENTED_EDGE('',*,*,#588,.T.);
#422=ORIENTED_EDGE('',*,*,#565,.T.);
#423=ORIENTED_EDGE('',*,*,#571,.T.);
#424=ORIENTED_EDGE('',*,*,#554,.T.);
#425=ORIENTED_EDGE('',*,*,#609,.F.);
#426=ORIENTED_EDGE('',*,*,#625,.F.);
#427=ORIENTED_EDGE('',*,*,#586,.F.);
#428=ORIENTED_EDGE('',*,*,#620,.F.);
#429=ORIENTED_EDGE('',*,*,#626,.F.);
#430=ORIENTED_EDGE('',*,*,#627,.F.);
#431=ORIENTED_EDGE('',*,*,#598,.F.);
#432=ORIENTED_EDGE('',*,*,#628,.T.);
#433=ORIENTED_EDGE('',*,*,#629,.F.);
#434=ORIENTED_EDGE('',*,*,#630,.F.);
#435=ORIENTED_EDGE('',*,*,#551,.F.);
#436=ORIENTED_EDGE('',*,*,#577,.T.);
#437=ORIENTED_EDGE('',*,*,#572,.T.);
#438=ORIENTED_EDGE('',*,*,#567,.T.);
#439=ORIENTED_EDGE('',*,*,#597,.T.);
#440=ORIENTED_EDGE('',*,*,#547,.F.);
#441=ORIENTED_EDGE('',*,*,#574,.T.);
#442=ORIENTED_EDGE('',*,*,#631,.T.);
#443=ORIENTED_EDGE('',*,*,#632,.F.);
#444=ORIENTED_EDGE('',*,*,#633,.F.);
#445=ORIENTED_EDGE('',*,*,#580,.F.);
#446=ORIENTED_EDGE('',*,*,#568,.T.);
#447=ORIENTED_EDGE('',*,*,#557,.T.);
#448=ORIENTED_EDGE('',*,*,#562,.T.);
#449=ORIENTED_EDGE('',*,*,#610,.T.);
#450=ORIENTED_EDGE('',*,*,#556,.T.);
#451=ORIENTED_EDGE('',*,*,#634,.F.);
#452=ORIENTED_EDGE('',*,*,#631,.F.);
#453=ORIENTED_EDGE('',*,*,#573,.F.);
#454=ORIENTED_EDGE('',*,*,#617,.F.);
#455=ORIENTED_EDGE('',*,*,#635,.F.);
#456=ORIENTED_EDGE('',*,*,#628,.F.);
#457=ORIENTED_EDGE('',*,*,#576,.F.);
#458=ORIENTED_EDGE('',*,*,#616,.F.);
#459=ORIENTED_EDGE('',*,*,#636,.F.);
#460=ORIENTED_EDGE('',*,*,#637,.F.);
#461=ORIENTED_EDGE('',*,*,#599,.T.);
#462=ORIENTED_EDGE('',*,*,#627,.T.);
#463=ORIENTED_EDGE('',*,*,#630,.T.);
#464=ORIENTED_EDGE('',*,*,#638,.T.);
#465=ORIENTED_EDGE('',*,*,#614,.T.);
#466=ORIENTED_EDGE('',*,*,#582,.F.);
#467=ORIENTED_EDGE('',*,*,#581,.F.);
#468=ORIENTED_EDGE('',*,*,#633,.T.);
#469=ORIENTED_EDGE('',*,*,#639,.T.);
#470=ORIENTED_EDGE('',*,*,#618,.T.);
#471=ORIENTED_EDGE('',*,*,#591,.F.);
#472=ORIENTED_EDGE('',*,*,#592,.F.);
#473=ORIENTED_EDGE('',*,*,#584,.F.);
#474=ORIENTED_EDGE('',*,*,#583,.F.);
#475=ORIENTED_EDGE('',*,*,#625,.T.);
#476=ORIENTED_EDGE('',*,*,#613,.F.);
#477=ORIENTED_EDGE('',*,*,#640,.F.);
#478=ORIENTED_EDGE('',*,*,#641,.F.);
#479=ORIENTED_EDGE('',*,*,#642,.T.);
#480=ORIENTED_EDGE('',*,*,#643,.T.);
#481=ORIENTED_EDGE('',*,*,#623,.F.);
#482=ORIENTED_EDGE('',*,*,#587,.T.);
#483=ORIENTED_EDGE('',*,*,#593,.F.);
#484=ORIENTED_EDGE('',*,*,#585,.F.);
#485=ORIENTED_EDGE('',*,*,#590,.F.);
#486=ORIENTED_EDGE('',*,*,#644,.F.);
#487=ORIENTED_EDGE('',*,*,#645,.F.);
#488=ORIENTED_EDGE('',*,*,#646,.T.);
#489=ORIENTED_EDGE('',*,*,#641,.T.);
#490=ORIENTED_EDGE('',*,*,#601,.F.);
#491=ORIENTED_EDGE('',*,*,#607,.F.);
#492=ORIENTED_EDGE('',*,*,#594,.T.);
#493=ORIENTED_EDGE('',*,*,#637,.T.);
#494=ORIENTED_EDGE('',*,*,#647,.T.);
#495=ORIENTED_EDGE('',*,*,#648,.T.);
#496=ORIENTED_EDGE('',*,*,#644,.T.);
#497=ORIENTED_EDGE('',*,*,#640,.T.);
#498=ORIENTED_EDGE('',*,*,#612,.T.);
#499=ORIENTED_EDGE('',*,*,#604,.F.);
#500=ORIENTED_EDGE('',*,*,#622,.F.);
#501=ORIENTED_EDGE('',*,*,#624,.F.);
#502=ORIENTED_EDGE('',*,*,#643,.F.);
#503=ORIENTED_EDGE('',*,*,#649,.T.);
#504=ORIENTED_EDGE('',*,*,#650,.T.);
#505=ORIENTED_EDGE('',*,*,#647,.F.);
#506=ORIENTED_EDGE('',*,*,#636,.T.);
#507=ORIENTED_EDGE('',*,*,#615,.F.);
#508=ORIENTED_EDGE('',*,*,#638,.F.);
#509=ORIENTED_EDGE('',*,*,#629,.T.);
#510=ORIENTED_EDGE('',*,*,#635,.T.);
#511=ORIENTED_EDGE('',*,*,#619,.F.);
#512=ORIENTED_EDGE('',*,*,#639,.F.);
#513=ORIENTED_EDGE('',*,*,#632,.T.);
#514=ORIENTED_EDGE('',*,*,#634,.T.);
#515=ORIENTED_EDGE('',*,*,#626,.T.);
#516=ORIENTED_EDGE('',*,*,#642,.F.);
#517=ORIENTED_EDGE('',*,*,#646,.F.);
#518=ORIENTED_EDGE('',*,*,#651,.F.);
#519=ORIENTED_EDGE('',*,*,#649,.F.);
#520=ORIENTED_EDGE('',*,*,#648,.F.);
#521=ORIENTED_EDGE('',*,*,#650,.F.);
#522=ORIENTED_EDGE('',*,*,#651,.T.);
#523=ORIENTED_EDGE('',*,*,#645,.T.);
#524=EDGE_CURVE('',#652,#652,#746,.T.);
#525=EDGE_CURVE('',#653,#653,#747,.T.);
#526=EDGE_CURVE('',#654,#654,#748,.T.);
#527=EDGE_CURVE('',#655,#655,#749,.T.);
#528=EDGE_CURVE('',#656,#656,#750,.T.);
#529=EDGE_CURVE('',#657,#657,#751,.T.);
#530=EDGE_CURVE('',#658,#658,#752,.T.);
#531=EDGE_CURVE('',#659,#659,#753,.T.);
#532=EDGE_CURVE('',#660,#660,#754,.T.);
#533=EDGE_CURVE('',#661,#661,#755,.T.);
#534=EDGE_CURVE('',#662,#662,#756,.T.);
#535=EDGE_CURVE('',#663,#663,#757,.T.);
#536=EDGE_CURVE('',#664,#664,#758,.T.);
#537=EDGE_CURVE('',#665,#665,#759,.T.);
#538=EDGE_CURVE('',#666,#666,#760,.T.);
#539=EDGE_CURVE('',#667,#667,#761,.T.);
#540=EDGE_CURVE('',#668,#668,#762,.T.);
#541=EDGE_CURVE('',#669,#669,#763,.T.);
#542=EDGE_CURVE('',#670,#670,#764,.T.);
#543=EDGE_CURVE('',#671,#671,#765,.T.);
#544=EDGE_CURVE('',#672,#672,#766,.T.);
#545=EDGE_CURVE('',#673,#674,#20,.T.);
#546=EDGE_CURVE('',#674,#675,#21,.T.);
#547=EDGE_CURVE('',#675,#676,#22,.T.);
#548=EDGE_CURVE('',#676,#677,#23,.T.);
#549=EDGE_CURVE('',#678,#677,#24,.T.);
#550=EDGE_CURVE('',#678,#679,#25,.T.);
#551=EDGE_CURVE('',#679,#680,#26,.T.);
#552=EDGE_CURVE('',#673,#680,#27,.T.);
#553=EDGE_CURVE('',#681,#682,#28,.T.);
#554=EDGE_CURVE('',#683,#681,#29,.T.);
#555=EDGE_CURVE('',#683,#684,#30,.T.);
#556=EDGE_CURVE('',#682,#684,#31,.T.);
#557=EDGE_CURVE('',#685,#686,#32,.T.);
#558=EDGE_CURVE('',#687,#685,#33,.T.);
#559=EDGE_CURVE('',#687,#688,#34,.T.);
#560=EDGE_CURVE('',#688,#686,#35,.T.);
#561=EDGE_CURVE('',#689,#690,#36,.T.);
#562=EDGE_CURVE('',#686,#690,#37,.T.);
#563=EDGE_CURVE('',#688,#689,#38,.T.);
#564=EDGE_CURVE('',#691,#692,#39,.T.);
#565=EDGE_CURVE('',#693,#691,#40,.T.);
#566=EDGE_CURVE('',#693,#694,#41,.T.);
#567=EDGE_CURVE('',#692,#694,#42,.T.);
#568=EDGE_CURVE('',#695,#685,#43,.T.);
#569=EDGE_CURVE('',#696,#695,#44,.T.);
#570=EDGE_CURVE('',#696,#687,#45,.T.);
#571=EDGE_CURVE('',#691,#683,#46,.T.);
#572=EDGE_CURVE('',#684,#692,#47,.T.);
#573=EDGE_CURVE('',#697,#698,#48,.T.);
#574=EDGE_CURVE('',#675,#698,#49,.T.);
#575=EDGE_CURVE('',#674,#697,#50,.T.);
#576=EDGE_CURVE('',#699,#700,#51,.T.);
#577=EDGE_CURVE('',#679,#700,#52,.T.);
#578=EDGE_CURVE('',#678,#699,#53,.T.);
#579=EDGE_CURVE('',#701,#696,#54,.T.);
#580=EDGE_CURVE('',#695,#702,#55,.T.);
#581=EDGE_CURVE('',#702,#673,#56,.T.);
#582=EDGE_CURVE('',#680,#701,#57,.T.);
#583=EDGE_CURVE('',#703,#703,#767,.T.);
#584=EDGE_CURVE('',#704,#704,#768,.T.);
#585=EDGE_CURVE('',#705,#705,#769,.T.);
#586=EDGE_CURVE('',#706,#707,#58,.T.);
#587=EDGE_CURVE('',#708,#707,#59,.T.);
#588=EDGE_CURVE('',#709,#708,#60,.T.);
#589=EDGE_CURVE('',#709,#706,#61,.T.);
#590=EDGE_CURVE('',#710,#710,#770,.T.);
#591=EDGE_CURVE('',#711,#711,#771,.T.);
#592=EDGE_CURVE('',#712,#712,#772,.T.);
#593=EDGE_CURVE('',#713,#713,#773,.T.);
#594=EDGE_CURVE('',#714,#715,#62,.T.);
#595=EDGE_CURVE('',#716,#714,#63,.T.);
#596=EDGE_CURVE('',#677,#716,#64,.T.);
#597=EDGE_CURVE('',#694,#676,#65,.T.);
#598=EDGE_CURVE('',#693,#717,#66,.T.);
#599=EDGE_CURVE('',#715,#717,#67,.T.);
#600=EDGE_CURVE('',#718,#719,#68,.T.);
#601=EDGE_CURVE('',#719,#720,#69,.T.);
#602=EDGE_CURVE('',#721,#720,#70,.T.);
#603=EDGE_CURVE('',#718,#721,#71,.T.);
#604=EDGE_CURVE('',#720,#722,#72,.T.);
#605=EDGE_CURVE('',#723,#722,#73,.T.);
#606=EDGE_CURVE('',#721,#723,#74,.T.);
#607=EDGE_CURVE('',#714,#719,#75,.T.);
#608=EDGE_CURVE('',#716,#718,#76,.T.);
#609=EDGE_CURVE('',#724,#681,#77,.T.);
#610=EDGE_CURVE('',#690,#682,#78,.T.);
#611=EDGE_CURVE('',#723,#689,#79,.T.);
#612=EDGE_CURVE('',#725,#722,#80,.T.);
#613=EDGE_CURVE('',#725,#724,#81,.T.);
#614=EDGE_CURVE('',#726,#701,#82,.T.);
#615=EDGE_CURVE('',#726,#727,#83,.T.);
#616=EDGE_CURVE('',#727,#699,#84,.T.);
#617=EDGE_CURVE('',#728,#697,#85,.T.);
#618=EDGE_CURVE('',#729,#673,#86,.T.);
#619=EDGE_CURVE('',#729,#728,#87,.T.);
#620=EDGE_CURVE('',#730,#706,#88,.T.);
#621=EDGE_CURVE('',#731,#709,#89,.T.);
#622=EDGE_CURVE('',#731,#730,#90,.T.);
#623=EDGE_CURVE('',#708,#732,#91,.T.);
#624=EDGE_CURVE('',#732,#731,#92,.T.);
#625=EDGE_CURVE('',#707,#724,#93,.T.);
#626=EDGE_CURVE('',#733,#730,#94,.T.);
#627=EDGE_CURVE('',#717,#733,#95,.T.);
#628=EDGE_CURVE('',#700,#734,#96,.T.);
#629=EDGE_CURVE('',#735,#734,#97,.T.);
#630=EDGE_CURVE('',#680,#735,#98,.T.);
#631=EDGE_CURVE('',#698,#736,#99,.T.);
#632=EDGE_CURVE('',#737,#736,#100,.T.);
#633=EDGE_CURVE('',#702,#737,#101,.T.);
#634=EDGE_CURVE('',#736,#733,#102,.T.);
#635=EDGE_CURVE('',#734,#728,#103,.T.);
#636=EDGE_CURVE('',#738,#727,#104,.T.);
#637=EDGE_CURVE('',#715,#738,#105,.T.);
#638=EDGE_CURVE('',#735,#726,#106,.T.);
#639=EDGE_CURVE('',#737,#729,#107,.T.);
#640=EDGE_CURVE('',#739,#725,#108,.T.);
#641=EDGE_CURVE('',#740,#739,#109,.T.);
#642=EDGE_CURVE('',#740,#741,#110,.T.);
#643=EDGE_CURVE('',#741,#732,#111,.T.);
#644=EDGE_CURVE('',#742,#739,#112,.T.);
#645=EDGE_CURVE('',#743,#742,#113,.T.);
#646=EDGE_CURVE('',#743,#740,#114,.T.);
#647=EDGE_CURVE('',#738,#744,#115,.T.);
#648=EDGE_CURVE('',#744,#742,#116,.T.);
#649=EDGE_CURVE('',#741,#745,#117,.T.);
#650=EDGE_CURVE('',#745,#744,#118,.T.);
#651=EDGE_CURVE('',#745,#743,#119,.T.);
#652=VERTEX_POINT('',#1636);
#653=VERTEX_POINT('',#1639);
#654=VERTEX_POINT('',#1642);
#655=VERTEX_POINT('',#1645);
#656=VERTEX_POINT('',#1648);
#657=VERTEX_POINT('',#1651);
#658=VERTEX_POINT('',#1654);
#659=VERTEX_POINT('',#1657);
#660=VERTEX_POINT('',#1660);
#661=VERTEX_POINT('',#1663);
#662=VERTEX_POINT('',#1666);
#663=VERTEX_POINT('',#1669);
#664=VERTEX_POINT('',#1672);
#665=VERTEX_POINT('',#1675);
#666=VERTEX_POINT('',#1678);
#667=VERTEX_POINT('',#1681);
#668=VERTEX_POINT('',#1684);
#669=VERTEX_POINT('',#1687);
#670=VERTEX_POINT('',#1690);
#671=VERTEX_POINT('',#1693);
#672=VERTEX_POINT('',#1696);
#673=VERTEX_POINT('',#1699);
#674=VERTEX_POINT('',#1700);
#675=VERTEX_POINT('',#1702);
#676=VERTEX_POINT('',#1704);
#677=VERTEX_POINT('',#1706);
#678=VERTEX_POINT('',#1708);
#679=VERTEX_POINT('',#1710);
#680=VERTEX_POINT('',#1712);
#681=VERTEX_POINT('',#1716);
#682=VERTEX_POINT('',#1717);
#683=VERTEX_POINT('',#1719);
#684=VERTEX_POINT('',#1721);
#685=VERTEX_POINT('',#1725);
#686=VERTEX_POINT('',#1726);
#687=VERTEX_POINT('',#1728);
#688=VERTEX_POINT('',#1730);
#689=VERTEX_POINT('',#1734);
#690=VERTEX_POINT('',#1735);
#691=VERTEX_POINT('',#1740);
#692=VERTEX_POINT('',#1741);
#693=VERTEX_POINT('',#1743);
#694=VERTEX_POINT('',#1745);
#695=VERTEX_POINT('',#1749);
#696=VERTEX_POINT('',#1751);
#697=VERTEX_POINT('',#1758);
#698=VERTEX_POINT('',#1759);
#699=VERTEX_POINT('',#1764);
#700=VERTEX_POINT('',#1765);
#701=VERTEX_POINT('',#1770);
#702=VERTEX_POINT('',#1772);
#703=VERTEX_POINT('',#1777);
#704=VERTEX_POINT('',#1780);
#705=VERTEX_POINT('',#1783);
#706=VERTEX_POINT('',#1786);
#707=VERTEX_POINT('',#1787);
#708=VERTEX_POINT('',#1789);
#709=VERTEX_POINT('',#1791);
#710=VERTEX_POINT('',#1795);
#711=VERTEX_POINT('',#1798);
#712=VERTEX_POINT('',#1801);
#713=VERTEX_POINT('',#1804);
#714=VERTEX_POINT('',#1807);
#715=VERTEX_POINT('',#1808);
#716=VERTEX_POINT('',#1810);
#717=VERTEX_POINT('',#1814);
#718=VERTEX_POINT('',#1818);
#719=VERTEX_POINT('',#1819);
#720=VERTEX_POINT('',#1821);
#721=VERTEX_POINT('',#1823);
#722=VERTEX_POINT('',#1827);
#723=VERTEX_POINT('',#1829);
#724=VERTEX_POINT('',#1836);
#725=VERTEX_POINT('',#1840);
#726=VERTEX_POINT('',#1844);
#727=VERTEX_POINT('',#1846);
#728=VERTEX_POINT('',#1850);
#729=VERTEX_POINT('',#1852);
#730=VERTEX_POINT('',#1856);
#731=VERTEX_POINT('',#1858);
#732=VERTEX_POINT('',#1862);
#733=VERTEX_POINT('',#1867);
#734=VERTEX_POINT('',#1871);
#735=VERTEX_POINT('',#1873);
#736=VERTEX_POINT('',#1877);
#737=VERTEX_POINT('',#1879);
#738=VERTEX_POINT('',#1885);
#739=VERTEX_POINT('',#1893);
#740=VERTEX_POINT('',#1895);
#741=VERTEX_POINT('',#1897);
#742=VERTEX_POINT('',#1901);
#743=VERTEX_POINT('',#1903);
#744=VERTEX_POINT('',#1907);
#745=VERTEX_POINT('',#1911);
#746=CIRCLE('',#1268,0.00025);
#747=CIRCLE('',#1270,0.00025);
#748=CIRCLE('',#1272,0.00025);
#749=CIRCLE('',#1274,0.00025);
#750=CIRCLE('',#1276,0.00025);
#751=CIRCLE('',#1278,0.00025);
#752=CIRCLE('',#1280,0.00025);
#753=CIRCLE('',#1282,0.00025);
#754=CIRCLE('',#1284,0.00025);
#755=CIRCLE('',#1286,0.00025);
#756=CIRCLE('',#1288,0.00025);
#757=CIRCLE('',#1290,0.00025);
#758=CIRCLE('',#1292,0.00025);
#759=CIRCLE('',#1294,0.00025);
#760=CIRCLE('',#1296,0.00025);
#761=CIRCLE('',#1298,0.00025);
#762=CIRCLE('',#1300,0.00025);
#763=CIRCLE('',#1302,0.00025);
#764=CIRCLE('',#1304,0.00025);
#765=CIRCLE('',#1306,0.00025);
#766=CIRCLE('',#1308,0.00025);
#767=CIRCLE('',#1320,0.00025);
#768=CIRCLE('',#1322,0.00025);
#769=CIRCLE('',#1324,0.00025);
#770=CIRCLE('',#1327,0.00025);
#771=CIRCLE('',#1329,0.00025);
#772=CIRCLE('',#1331,0.00025);
#773=CIRCLE('',#1333,0.00025);
#774=EDGE_LOOP('',(#268));
#775=EDGE_LOOP('',(#269));
#776=EDGE_LOOP('',(#270));
#777=EDGE_LOOP('',(#271));
#778=EDGE_LOOP('',(#272));
#779=EDGE_LOOP('',(#273));
#780=EDGE_LOOP('',(#274));
#781=EDGE_LOOP('',(#275));
#782=EDGE_LOOP('',(#276));
#783=EDGE_LOOP('',(#277));
#784=EDGE_LOOP('',(#278));
#785=EDGE_LOOP('',(#279));
#786=EDGE_LOOP('',(#280));
#787=EDGE_LOOP('',(#281));
#788=EDGE_LOOP('',(#282));
#789=EDGE_LOOP('',(#283));
#790=EDGE_LOOP('',(#284));
#791=EDGE_LOOP('',(#285));
#792=EDGE_LOOP('',(#286));
#793=EDGE_LOOP('',(#287));
#794=EDGE_LOOP('',(#288));
#795=EDGE_LOOP('',(#289));
#796=EDGE_LOOP('',(#290));
#797=EDGE_LOOP('',(#291));
#798=EDGE_LOOP('',(#292));
#799=EDGE_LOOP('',(#293));
#800=EDGE_LOOP('',(#294));
#801=EDGE_LOOP('',(#295));
#802=EDGE_LOOP('',(#296,#297,#298,#299,#300,#301,#302,#303));
#803=EDGE_LOOP('',(#304,#305,#306,#307));
#804=EDGE_LOOP('',(#308,#309,#310,#311));
#805=EDGE_LOOP('',(#312,#313,#314,#315));
#806=EDGE_LOOP('',(#316,#317,#318,#319));
#807=EDGE_LOOP('',(#320,#321,#322,#323));
#808=EDGE_LOOP('',(#324,#325,#326,#327));
#809=EDGE_LOOP('',(#328,#329,#330,#331));
#810=EDGE_LOOP('',(#332,#333,#334,#335));
#811=EDGE_LOOP('',(#336,#337,#338,#339,#340,#341));
#812=EDGE_LOOP('',(#342));
#813=EDGE_LOOP('',(#343));
#814=EDGE_LOOP('',(#344));
#815=EDGE_LOOP('',(#345));
#816=EDGE_LOOP('',(#346));
#817=EDGE_LOOP('',(#347));
#818=EDGE_LOOP('',(#348));
#819=EDGE_LOOP('',(#349));
#820=EDGE_LOOP('',(#350));
#821=EDGE_LOOP('',(#351));
#822=EDGE_LOOP('',(#352));
#823=EDGE_LOOP('',(#353));
#824=EDGE_LOOP('',(#354));
#825=EDGE_LOOP('',(#355,#356,#357,#358));
#826=EDGE_LOOP('',(#359));
#827=EDGE_LOOP('',(#360));
#828=EDGE_LOOP('',(#361));
#829=EDGE_LOOP('',(#362));
#830=EDGE_LOOP('',(#363));
#831=EDGE_LOOP('',(#364));
#832=EDGE_LOOP('',(#365));
#833=EDGE_LOOP('',(#366));
#834=EDGE_LOOP('',(#367,#368,#369,#370,#371,#372,#373,#374));
#835=EDGE_LOOP('',(#375,#376,#377,#378));
#836=EDGE_LOOP('',(#379,#380,#381,#382));
#837=EDGE_LOOP('',(#383,#384,#385,#386));
#838=EDGE_LOOP('',(#387,#388,#389,#390,#391,#392,#393,#394));
#839=EDGE_LOOP('',(#395,#396,#397,#398,#399,#400,#401,#402,#403,#404,#405,
#406,#407,#408));
#840=EDGE_LOOP('',(#409,#410,#411,#412,#413));
#841=EDGE_LOOP('',(#414,#415,#416,#417));
#842=EDGE_LOOP('',(#418,#419,#420,#421));
#843=EDGE_LOOP('',(#422,#423,#424,#425,#426,#427,#428,#429,#430,#431));
#844=EDGE_LOOP('',(#432,#433,#434,#435,#436));
#845=EDGE_LOOP('',(#437,#438,#439,#440,#441,#442,#443,#444,#445,#446,#447,
#448,#449,#450));
#846=EDGE_LOOP('',(#451,#452,#453,#454,#455,#456,#457,#458,#459,#460,#461,
#462));
#847=EDGE_LOOP('',(#463,#464,#465,#466));
#848=EDGE_LOOP('',(#467,#468,#469,#470));
#849=EDGE_LOOP('',(#471));
#850=EDGE_LOOP('',(#472));
#851=EDGE_LOOP('',(#473));
#852=EDGE_LOOP('',(#474));
#853=EDGE_LOOP('',(#475,#476,#477,#478,#479,#480,#481,#482));
#854=EDGE_LOOP('',(#483));
#855=EDGE_LOOP('',(#484));
#856=EDGE_LOOP('',(#485));
#857=EDGE_LOOP('',(#486,#487,#488,#489));
#858=EDGE_LOOP('',(#490,#491,#492,#493,#494,#495,#496,#497,#498,#499));
#859=EDGE_LOOP('',(#500,#501,#502,#503,#504,#505,#506,#507,#508,#509,#510,
#511,#512,#513,#514,#515));
#860=EDGE_LOOP('',(#516,#517,#518,#519));
#861=EDGE_LOOP('',(#520,#521,#522,#523));
#862=FACE_BOUND('',#774,.T.);
#863=FACE_BOUND('',#775,.T.);
#864=FACE_BOUND('',#776,.T.);
#865=FACE_BOUND('',#777,.T.);
#866=FACE_BOUND('',#778,.T.);
#867=FACE_BOUND('',#779,.T.);
#868=FACE_BOUND('',#780,.T.);
#869=FACE_BOUND('',#781,.T.);
#870=FACE_BOUND('',#782,.T.);
#871=FACE_BOUND('',#783,.T.);
#872=FACE_BOUND('',#784,.T.);
#873=FACE_BOUND('',#785,.T.);
#874=FACE_BOUND('',#786,.T.);
#875=FACE_BOUND('',#787,.T.);
#876=FACE_BOUND('',#788,.T.);
#877=FACE_BOUND('',#789,.T.);
#878=FACE_BOUND('',#790,.T.);
#879=FACE_BOUND('',#791,.T.);
#880=FACE_BOUND('',#792,.T.);
#881=FACE_BOUND('',#793,.T.);
#882=FACE_BOUND('',#794,.T.);
#883=FACE_BOUND('',#795,.T.);
#884=FACE_BOUND('',#796,.T.);
#885=FACE_BOUND('',#797,.T.);
#886=FACE_BOUND('',#798,.T.);
#887=FACE_BOUND('',#799,.T.);
#888=FACE_BOUND('',#800,.T.);
#889=FACE_BOUND('',#801,.T.);
#890=FACE_BOUND('',#802,.T.);
#891=FACE_BOUND('',#803,.T.);
#892=FACE_BOUND('',#804,.T.);
#893=FACE_BOUND('',#805,.T.);
#894=FACE_BOUND('',#806,.T.);
#895=FACE_BOUND('',#807,.T.);
#896=FACE_BOUND('',#808,.T.);
#897=FACE_BOUND('',#809,.T.);
#898=FACE_BOUND('',#810,.T.);
#899=FACE_BOUND('',#811,.T.);
#900=FACE_BOUND('',#812,.T.);
#901=FACE_BOUND('',#813,.T.);
#902=FACE_BOUND('',#814,.T.);
#903=FACE_BOUND('',#815,.T.);
#904=FACE_BOUND('',#816,.T.);
#905=FACE_BOUND('',#817,.T.);
#906=FACE_BOUND('',#818,.T.);
#907=FACE_BOUND('',#819,.T.);
#908=FACE_BOUND('',#820,.T.);
#909=FACE_BOUND('',#821,.T.);
#910=FACE_BOUND('',#822,.T.);
#911=FACE_BOUND('',#823,.T.);
#912=FACE_BOUND('',#824,.T.);
#913=FACE_BOUND('',#825,.T.);
#914=FACE_BOUND('',#826,.T.);
#915=FACE_BOUND('',#827,.T.);
#916=FACE_BOUND('',#828,.T.);
#917=FACE_BOUND('',#829,.T.);
#918=FACE_BOUND('',#830,.T.);
#919=FACE_BOUND('',#831,.T.);
#920=FACE_BOUND('',#832,.T.);
#921=FACE_BOUND('',#833,.T.);
#922=FACE_BOUND('',#834,.T.);
#923=FACE_BOUND('',#835,.T.);
#924=FACE_BOUND('',#836,.T.);
#925=FACE_BOUND('',#837,.T.);
#926=FACE_BOUND('',#838,.T.);
#927=FACE_BOUND('',#839,.T.);
#928=FACE_BOUND('',#840,.T.);
#929=FACE_BOUND('',#841,.T.);
#930=FACE_BOUND('',#842,.T.);
#931=FACE_BOUND('',#843,.T.);
#932=FACE_BOUND('',#844,.T.);
#933=FACE_BOUND('',#845,.T.);
#934=FACE_BOUND('',#846,.T.);
#935=FACE_BOUND('',#847,.T.);
#936=FACE_BOUND('',#848,.T.);
#937=FACE_BOUND('',#849,.T.);
#938=FACE_BOUND('',#850,.T.);
#939=FACE_BOUND('',#851,.T.);
#940=FACE_BOUND('',#852,.T.);
#941=FACE_BOUND('',#853,.T.);
#942=FACE_BOUND('',#854,.T.);
#943=FACE_BOUND('',#855,.T.);
#944=FACE_BOUND('',#856,.T.);
#945=FACE_BOUND('',#857,.T.);
#946=FACE_BOUND('',#858,.T.);
#947=FACE_BOUND('',#859,.T.);
#948=FACE_BOUND('',#860,.T.);
#949=FACE_BOUND('',#861,.T.);
#950=PLANE('',#1267);
#951=PLANE('',#1269);
#952=PLANE('',#1271);
#953=PLANE('',#1273);
#954=PLANE('',#1275);
#955=PLANE('',#1277);
#956=PLANE('',#1279);
#957=PLANE('',#1295);
#958=PLANE('',#1297);
#959=PLANE('',#1299);
#960=PLANE('',#1301);
#961=PLANE('',#1303);
#962=PLANE('',#1305);
#963=PLANE('',#1307);
#964=PLANE('',#1309);
#965=PLANE('',#1310);
#966=PLANE('',#1311);
#967=PLANE('',#1312);
#968=PLANE('',#1313);
#969=PLANE('',#1314);
#970=PLANE('',#1315);
#971=PLANE('',#1316);
#972=PLANE('',#1317);
#973=PLANE('',#1318);
#974=PLANE('',#1325);
#975=PLANE('',#1334);
#976=PLANE('',#1335);
#977=PLANE('',#1336);
#978=PLANE('',#1337);
#979=PLANE('',#1338);
#980=PLANE('',#1339);
#981=PLANE('',#1340);
#982=PLANE('',#1341);
#983=PLANE('',#1342);
#984=PLANE('',#1343);
#985=PLANE('',#1344);
#986=PLANE('',#1345);
#987=PLANE('',#1346);
#988=PLANE('',#1347);
#989=PLANE('',#1348);
#990=PLANE('',#1349);
#991=PLANE('',#1350);
#992=PLANE('',#1351);
#993=PLANE('',#1352);
#994=PLANE('',#1353);
#995=PLANE('',#1354);
#996=ADVANCED_FACE('',(#862),#950,.T.);
#997=ADVANCED_FACE('',(#863),#951,.T.);
#998=ADVANCED_FACE('',(#864),#952,.T.);
#999=ADVANCED_FACE('',(#865),#953,.T.);
#1000=ADVANCED_FACE('',(#866),#954,.T.);
#1001=ADVANCED_FACE('',(#867),#955,.T.);
#1002=ADVANCED_FACE('',(#868),#956,.T.);
#1003=ADVANCED_FACE('',(#869,#870),#220,.T.);
#1004=ADVANCED_FACE('',(#871,#872),#221,.T.);
#1005=ADVANCED_FACE('',(#873,#874),#222,.T.);
#1006=ADVANCED_FACE('',(#875,#876),#223,.T.);
#1007=ADVANCED_FACE('',(#877,#878),#224,.T.);
#1008=ADVANCED_FACE('',(#879,#880),#225,.T.);
#1009=ADVANCED_FACE('',(#881,#882),#226,.T.);
#1010=ADVANCED_FACE('',(#883),#957,.T.);
#1011=ADVANCED_FACE('',(#884),#958,.T.);
#1012=ADVANCED_FACE('',(#885),#959,.T.);
#1013=ADVANCED_FACE('',(#886),#960,.T.);
#1014=ADVANCED_FACE('',(#887),#961,.T.);
#1015=ADVANCED_FACE('',(#888),#962,.T.);
#1016=ADVANCED_FACE('',(#889),#963,.T.);
#1017=ADVANCED_FACE('',(#890),#964,.F.);
#1018=ADVANCED_FACE('',(#891),#965,.F.);
#1019=ADVANCED_FACE('',(#892),#966,.T.);
#1020=ADVANCED_FACE('',(#893),#967,.F.);
#1021=ADVANCED_FACE('',(#894),#968,.F.);
#1022=ADVANCED_FACE('',(#895),#969,.T.);
#1023=ADVANCED_FACE('',(#896),#970,.F.);
#1024=ADVANCED_FACE('',(#897),#971,.T.);
#1025=ADVANCED_FACE('',(#898),#972,.T.);
#1026=ADVANCED_FACE('',(#899,#900,#901,#902,#903,#904,#905,#906),#973,.T.);
#1027=ADVANCED_FACE('',(#907,#908),#227,.T.);
#1028=ADVANCED_FACE('',(#909,#910),#228,.T.);
#1029=ADVANCED_FACE('',(#911,#912),#229,.T.);
#1030=ADVANCED_FACE('',(#913),#974,.T.);
#1031=ADVANCED_FACE('',(#914,#915),#230,.T.);
#1032=ADVANCED_FACE('',(#916,#917),#231,.T.);
#1033=ADVANCED_FACE('',(#918,#919),#232,.T.);
#1034=ADVANCED_FACE('',(#920,#921),#233,.T.);
#1035=ADVANCED_FACE('',(#922),#975,.F.);
#1036=ADVANCED_FACE('',(#923),#976,.F.);
#1037=ADVANCED_FACE('',(#924),#977,.F.);
#1038=ADVANCED_FACE('',(#925),#978,.F.);
#1039=ADVANCED_FACE('',(#926),#979,.F.);
#1040=ADVANCED_FACE('',(#927),#980,.F.);
#1041=ADVANCED_FACE('',(#928),#981,.F.);
#1042=ADVANCED_FACE('',(#929),#982,.T.);
#1043=ADVANCED_FACE('',(#930),#983,.T.);
#1044=ADVANCED_FACE('',(#931),#984,.T.);
#1045=ADVANCED_FACE('',(#932),#985,.F.);
#1046=ADVANCED_FACE('',(#933),#986,.F.);
#1047=ADVANCED_FACE('',(#934),#987,.F.);
#1048=ADVANCED_FACE('',(#935),#988,.T.);
#1049=ADVANCED_FACE('',(#936),#989,.T.);
#1050=ADVANCED_FACE('',(#937,#938,#939,#940,#941,#942,#943,#944),#990,.F.);
#1051=ADVANCED_FACE('',(#945),#991,.T.);
#1052=ADVANCED_FACE('',(#946),#992,.F.);
#1053=ADVANCED_FACE('',(#947),#993,.F.);
#1054=ADVANCED_FACE('',(#948),#994,.T.);
#1055=ADVANCED_FACE('',(#949),#995,.T.);
#1056=CLOSED_SHELL('',(#996,#997,#998,#999,#1000,#1001,#1002,#1003,#1004,
#1005,#1006,#1007,#1008,#1009,#1010,#1011,#1012,#1013,#1014,#1015,#1016,
#1017,#1018,#1019,#1020,#1021,#1022,#1023,#1024,#1025,#1026,#1027,#1028,
#1029,#1030,#1031,#1032,#1033,#1034,#1035,#1036,#1037,#1038,#1039,#1040,
#1041,#1042,#1043,#1044,#1045,#1046,#1047,#1048,#1049,#1050,#1051,#1052,
#1053,#1054,#1055));
#1057=STYLED_ITEM('',(#1058),#1263);
#1058=PRESENTATION_STYLE_ASSIGNMENT((#1092));
#1059=PRESENTATION_STYLE_ASSIGNMENT((#1093));
#1060=PRESENTATION_STYLE_ASSIGNMENT((#1094));
#1061=PRESENTATION_STYLE_ASSIGNMENT((#1095));
#1062=PRESENTATION_STYLE_ASSIGNMENT((#1096));
#1063=PRESENTATION_STYLE_ASSIGNMENT((#1097));
#1064=PRESENTATION_STYLE_ASSIGNMENT((#1098));
#1065=PRESENTATION_STYLE_ASSIGNMENT((#1099));
#1066=PRESENTATION_STYLE_ASSIGNMENT((#1100));
#1067=PRESENTATION_STYLE_ASSIGNMENT((#1101));
#1068=PRESENTATION_STYLE_ASSIGNMENT((#1102));
#1069=PRESENTATION_STYLE_ASSIGNMENT((#1103));
#1070=PRESENTATION_STYLE_ASSIGNMENT((#1104));
#1071=PRESENTATION_STYLE_ASSIGNMENT((#1105));
#1072=PRESENTATION_STYLE_ASSIGNMENT((#1106));
#1073=PRESENTATION_STYLE_ASSIGNMENT((#1107));
#1074=PRESENTATION_STYLE_ASSIGNMENT((#1108));
#1075=PRESENTATION_STYLE_ASSIGNMENT((#1109));
#1076=PRESENTATION_STYLE_ASSIGNMENT((#1110));
#1077=PRESENTATION_STYLE_ASSIGNMENT((#1111));
#1078=PRESENTATION_STYLE_ASSIGNMENT((#1112));
#1079=PRESENTATION_STYLE_ASSIGNMENT((#1113));
#1080=PRESENTATION_STYLE_ASSIGNMENT((#1114));
#1081=PRESENTATION_STYLE_ASSIGNMENT((#1115));
#1082=PRESENTATION_STYLE_ASSIGNMENT((#1116));
#1083=PRESENTATION_STYLE_ASSIGNMENT((#1117));
#1084=PRESENTATION_STYLE_ASSIGNMENT((#1118));
#1085=PRESENTATION_STYLE_ASSIGNMENT((#1119));
#1086=PRESENTATION_STYLE_ASSIGNMENT((#1120));
#1087=PRESENTATION_STYLE_ASSIGNMENT((#1121));
#1088=PRESENTATION_STYLE_ASSIGNMENT((#1122));
#1089=PRESENTATION_STYLE_ASSIGNMENT((#1123));
#1090=PRESENTATION_STYLE_ASSIGNMENT((#1124));
#1091=PRESENTATION_STYLE_ASSIGNMENT((#1125));
#1092=SURFACE_STYLE_USAGE(.BOTH.,#1126);
#1093=SURFACE_STYLE_USAGE(.BOTH.,#1127);
#1094=SURFACE_STYLE_USAGE(.BOTH.,#1128);
#1095=SURFACE_STYLE_USAGE(.BOTH.,#1129);
#1096=SURFACE_STYLE_USAGE(.BOTH.,#1130);
#1097=SURFACE_STYLE_USAGE(.BOTH.,#1131);
#1098=SURFACE_STYLE_USAGE(.BOTH.,#1132);
#1099=SURFACE_STYLE_USAGE(.BOTH.,#1133);
#1100=SURFACE_STYLE_USAGE(.BOTH.,#1134);
#1101=SURFACE_STYLE_USAGE(.BOTH.,#1135);
#1102=SURFACE_STYLE_USAGE(.BOTH.,#1136);
#1103=SURFACE_STYLE_USAGE(.BOTH.,#1137);
#1104=SURFACE_STYLE_USAGE(.BOTH.,#1138);
#1105=SURFACE_STYLE_USAGE(.BOTH.,#1139);
#1106=SURFACE_STYLE_USAGE(.BOTH.,#1140);
#1107=SURFACE_STYLE_USAGE(.BOTH.,#1141);
#1108=SURFACE_STYLE_USAGE(.BOTH.,#1142);
#1109=SURFACE_STYLE_USAGE(.BOTH.,#1143);
#1110=SURFACE_STYLE_USAGE(.BOTH.,#1144);
#1111=SURFACE_STYLE_USAGE(.BOTH.,#1145);
#1112=SURFACE_STYLE_USAGE(.BOTH.,#1146);
#1113=SURFACE_STYLE_USAGE(.BOTH.,#1147);
#1114=SURFACE_STYLE_USAGE(.BOTH.,#1148);
#1115=SURFACE_STYLE_USAGE(.BOTH.,#1149);
#1116=SURFACE_STYLE_USAGE(.BOTH.,#1150);
#1117=SURFACE_STYLE_USAGE(.BOTH.,#1151);
#1118=SURFACE_STYLE_USAGE(.BOTH.,#1152);
#1119=SURFACE_STYLE_USAGE(.BOTH.,#1153);
#1120=SURFACE_STYLE_USAGE(.BOTH.,#1154);
#1121=SURFACE_STYLE_USAGE(.BOTH.,#1155);
#1122=SURFACE_STYLE_USAGE(.BOTH.,#1156);
#1123=SURFACE_STYLE_USAGE(.BOTH.,#1157);
#1124=SURFACE_STYLE_USAGE(.BOTH.,#1158);
#1125=SURFACE_STYLE_USAGE(.BOTH.,#1159);
#1126=SURFACE_SIDE_STYLE('',(#1160));
#1127=SURFACE_SIDE_STYLE('',(#1161));
#1128=SURFACE_SIDE_STYLE('',(#1162));
#1129=SURFACE_SIDE_STYLE('',(#1163));
#1130=SURFACE_SIDE_STYLE('',(#1164));
#1131=SURFACE_SIDE_STYLE('',(#1165));
#1132=SURFACE_SIDE_STYLE('',(#1166));
#1133=SURFACE_SIDE_STYLE('',(#1167));
#1134=SURFACE_SIDE_STYLE('',(#1168));
#1135=SURFACE_SIDE_STYLE('',(#1169));
#1136=SURFACE_SIDE_STYLE('',(#1170));
#1137=SURFACE_SIDE_STYLE('',(#1171));
#1138=SURFACE_SIDE_STYLE('',(#1172));
#1139=SURFACE_SIDE_STYLE('',(#1173));
#1140=SURFACE_SIDE_STYLE('',(#1174));
#1141=SURFACE_SIDE_STYLE('',(#1175));
#1142=SURFACE_SIDE_STYLE('',(#1176));
#1143=SURFACE_SIDE_STYLE('',(#1177));
#1144=SURFACE_SIDE_STYLE('',(#1178));
#1145=SURFACE_SIDE_STYLE('',(#1179));
#1146=SURFACE_SIDE_STYLE('',(#1180));
#1147=SURFACE_SIDE_STYLE('',(#1181));
#1148=SURFACE_SIDE_STYLE('',(#1182));
#1149=SURFACE_SIDE_STYLE('',(#1183));
#1150=SURFACE_SIDE_STYLE('',(#1184));
#1151=SURFACE_SIDE_STYLE('',(#1185));
#1152=SURFACE_SIDE_STYLE('',(#1186));
#1153=SURFACE_SIDE_STYLE('',(#1187));
#1154=SURFACE_SIDE_STYLE('',(#1188));
#1155=SURFACE_SIDE_STYLE('',(#1189));
#1156=SURFACE_SIDE_STYLE('',(#1190));
#1157=SURFACE_SIDE_STYLE('',(#1191));
#1158=SURFACE_SIDE_STYLE('',(#1192));
#1159=SURFACE_SIDE_STYLE('',(#1193));
#1160=SURFACE_STYLE_FILL_AREA(#1194);
#1161=SURFACE_STYLE_FILL_AREA(#1195);
#1162=SURFACE_STYLE_FILL_AREA(#1196);
#1163=SURFACE_STYLE_FILL_AREA(#1197);
#1164=SURFACE_STYLE_FILL_AREA(#1198);
#1165=SURFACE_STYLE_FILL_AREA(#1199);
#1166=SURFACE_STYLE_FILL_AREA(#1200);
#1167=SURFACE_STYLE_FILL_AREA(#1201);
#1168=SURFACE_STYLE_FILL_AREA(#1202);
#1169=SURFACE_STYLE_FILL_AREA(#1203);
#1170=SURFACE_STYLE_FILL_AREA(#1204);
#1171=SURFACE_STYLE_FILL_AREA(#1205);
#1172=SURFACE_STYLE_FILL_AREA(#1206);
#1173=SURFACE_STYLE_FILL_AREA(#1207);
#1174=SURFACE_STYLE_FILL_AREA(#1208);
#1175=SURFACE_STYLE_FILL_AREA(#1209);
#1176=SURFACE_STYLE_FILL_AREA(#1210);
#1177=SURFACE_STYLE_FILL_AREA(#1211);
#1178=SURFACE_STYLE_FILL_AREA(#1212);
#1179=SURFACE_STYLE_FILL_AREA(#1213);
#1180=SURFACE_STYLE_FILL_AREA(#1214);
#1181=SURFACE_STYLE_FILL_AREA(#1215);
#1182=SURFACE_STYLE_FILL_AREA(#1216);
#1183=SURFACE_STYLE_FILL_AREA(#1217);
#1184=SURFACE_STYLE_FILL_AREA(#1218);
#1185=SURFACE_STYLE_FILL_AREA(#1219);
#1186=SURFACE_STYLE_FILL_AREA(#1220);
#1187=SURFACE_STYLE_FILL_AREA(#1221);
#1188=SURFACE_STYLE_FILL_AREA(#1222);
#1189=SURFACE_STYLE_FILL_AREA(#1223);
#1190=SURFACE_STYLE_FILL_AREA(#1224);
#1191=SURFACE_STYLE_FILL_AREA(#1225);
#1192=SURFACE_STYLE_FILL_AREA(#1226);
#1193=SURFACE_STYLE_FILL_AREA(#1227);
#1194=FILL_AREA_STYLE('',(#1228));
#1195=FILL_AREA_STYLE('',(#1229));
#1196=FILL_AREA_STYLE('',(#1230));
#1197=FILL_AREA_STYLE('',(#1231));
#1198=FILL_AREA_STYLE('',(#1232));
#1199=FILL_AREA_STYLE('',(#1233));
#1200=FILL_AREA_STYLE('',(#1234));
#1201=FILL_AREA_STYLE('',(#1235));
#1202=FILL_AREA_STYLE('',(#1236));
#1203=FILL_AREA_STYLE('',(#1237));
#1204=FILL_AREA_STYLE('',(#1238));
#1205=FILL_AREA_STYLE('',(#1239));
#1206=FILL_AREA_STYLE('',(#1240));
#1207=FILL_AREA_STYLE('',(#1241));
#1208=FILL_AREA_STYLE('',(#1242));
#1209=FILL_AREA_STYLE('',(#1243));
#1210=FILL_AREA_STYLE('',(#1244));
#1211=FILL_AREA_STYLE('',(#1245));
#1212=FILL_AREA_STYLE('',(#1246));
#1213=FILL_AREA_STYLE('',(#1247));
#1214=FILL_AREA_STYLE('',(#1248));
#1215=FILL_AREA_STYLE('',(#1249));
#1216=FILL_AREA_STYLE('',(#1250));
#1217=FILL_AREA_STYLE('',(#1251));
#1218=FILL_AREA_STYLE('',(#1252));
#1219=FILL_AREA_STYLE('',(#1253));
#1220=FILL_AREA_STYLE('',(#1254));
#1221=FILL_AREA_STYLE('',(#1255));
#1222=FILL_AREA_STYLE('',(#1256));
#1223=FILL_AREA_STYLE('',(#1257));
#1224=FILL_AREA_STYLE('',(#1258));
#1225=FILL_AREA_STYLE('',(#1259));
#1226=FILL_AREA_STYLE('',(#1260));
#1227=FILL_AREA_STYLE('',(#1261));
#1228=FILL_AREA_STYLE_COLOUR('',#1262);
#1229=FILL_AREA_STYLE_COLOUR('',#267);
#1230=FILL_AREA_STYLE_COLOUR('',#267);
#1231=FILL_AREA_STYLE_COLOUR('',#267);
#1232=FILL_AREA_STYLE_COLOUR('',#267);
#1233=FILL_AREA_STYLE_COLOUR('',#267);
#1234=FILL_AREA_STYLE_COLOUR('',#267);
#1235=FILL_AREA_STYLE_COLOUR('',#267);
#1236=FILL_AREA_STYLE_COLOUR('',#267);
#1237=FILL_AREA_STYLE_COLOUR('',#267);
#1238=FILL_AREA_STYLE_COLOUR('',#267);
#1239=FILL_AREA_STYLE_COLOUR('',#267);
#1240=FILL_AREA_STYLE_COLOUR('',#267);
#1241=FILL_AREA_STYLE_COLOUR('',#267);
#1242=FILL_AREA_STYLE_COLOUR('',#267);
#1243=FILL_AREA_STYLE_COLOUR('',#267);
#1244=FILL_AREA_STYLE_COLOUR('',#267);
#1245=FILL_AREA_STYLE_COLOUR('',#267);
#1246=FILL_AREA_STYLE_COLOUR('',#267);
#1247=FILL_AREA_STYLE_COLOUR('',#267);
#1248=FILL_AREA_STYLE_COLOUR('',#267);
#1249=FILL_AREA_STYLE_COLOUR('',#267);
#1250=FILL_AREA_STYLE_COLOUR('',#267);
#1251=FILL_AREA_STYLE_COLOUR('',#267);
#1252=FILL_AREA_STYLE_COLOUR('',#267);
#1253=FILL_AREA_STYLE_COLOUR('',#267);
#1254=FILL_AREA_STYLE_COLOUR('',#267);
#1255=FILL_AREA_STYLE_COLOUR('',#267);
#1256=FILL_AREA_STYLE_COLOUR('',#267);
#1257=FILL_AREA_STYLE_COLOUR('',#267);
#1258=FILL_AREA_STYLE_COLOUR('',#267);
#1259=FILL_AREA_STYLE_COLOUR('',#267);
#1260=FILL_AREA_STYLE_COLOUR('',#267);
#1261=FILL_AREA_STYLE_COLOUR('',#267);
#1262=COLOUR_RGB('',1.,0.843137254901961,0.);
#1263=MANIFOLD_SOLID_BREP('S7B-ZR',#1056);
#1264=SHAPE_DEFINITION_REPRESENTATION(#1922,#1265);
#1265=SHAPE_REPRESENTATION('S7B-ZR',(#1266),#1917);
#1266=AXIS2_PLACEMENT_3D('',#1633,#1355,#1356);
#1267=AXIS2_PLACEMENT_3D('',#1634,#1357,#1358);
#1268=AXIS2_PLACEMENT_3D('',#1635,#1359,#1360);
#1269=AXIS2_PLACEMENT_3D('',#1637,#1361,#1362);
#1270=AXIS2_PLACEMENT_3D('',#1638,#1363,#1364);
#1271=AXIS2_PLACEMENT_3D('',#1640,#1365,#1366);
#1272=AXIS2_PLACEMENT_3D('',#1641,#1367,#1368);
#1273=AXIS2_PLACEMENT_3D('',#1643,#1369,#1370);
#1274=AXIS2_PLACEMENT_3D('',#1644,#1371,#1372);
#1275=AXIS2_PLACEMENT_3D('',#1646,#1373,#1374);
#1276=AXIS2_PLACEMENT_3D('',#1647,#1375,#1376);
#1277=AXIS2_PLACEMENT_3D('',#1649,#1377,#1378);
#1278=AXIS2_PLACEMENT_3D('',#1650,#1379,#1380);
#1279=AXIS2_PLACEMENT_3D('',#1652,#1381,#1382);
#1280=AXIS2_PLACEMENT_3D('',#1653,#1383,#1384);
#1281=AXIS2_PLACEMENT_3D('',#1655,#1385,#1386);
#1282=AXIS2_PLACEMENT_3D('',#1656,#1387,#1388);
#1283=AXIS2_PLACEMENT_3D('',#1658,#1389,#1390);
#1284=AXIS2_PLACEMENT_3D('',#1659,#1391,#1392);
#1285=AXIS2_PLACEMENT_3D('',#1661,#1393,#1394);
#1286=AXIS2_PLACEMENT_3D('',#1662,#1395,#1396);
#1287=AXIS2_PLACEMENT_3D('',#1664,#1397,#1398);
#1288=AXIS2_PLACEMENT_3D('',#1665,#1399,#1400);
#1289=AXIS2_PLACEMENT_3D('',#1667,#1401,#1402);
#1290=AXIS2_PLACEMENT_3D('',#1668,#1403,#1404);
#1291=AXIS2_PLACEMENT_3D('',#1670,#1405,#1406);
#1292=AXIS2_PLACEMENT_3D('',#1671,#1407,#1408);
#1293=AXIS2_PLACEMENT_3D('',#1673,#1409,#1410);
#1294=AXIS2_PLACEMENT_3D('',#1674,#1411,#1412);
#1295=AXIS2_PLACEMENT_3D('',#1676,#1413,#1414);
#1296=AXIS2_PLACEMENT_3D('',#1677,#1415,#1416);
#1297=AXIS2_PLACEMENT_3D('',#1679,#1417,#1418);
#1298=AXIS2_PLACEMENT_3D('',#1680,#1419,#1420);
#1299=AXIS2_PLACEMENT_3D('',#1682,#1421,#1422);
#1300=AXIS2_PLACEMENT_3D('',#1683,#1423,#1424);
#1301=AXIS2_PLACEMENT_3D('',#1685,#1425,#1426);
#1302=AXIS2_PLACEMENT_3D('',#1686,#1427,#1428);
#1303=AXIS2_PLACEMENT_3D('',#1688,#1429,#1430);
#1304=AXIS2_PLACEMENT_3D('',#1689,#1431,#1432);
#1305=AXIS2_PLACEMENT_3D('',#1691,#1433,#1434);
#1306=AXIS2_PLACEMENT_3D('',#1692,#1435,#1436);
#1307=AXIS2_PLACEMENT_3D('',#1694,#1437,#1438);
#1308=AXIS2_PLACEMENT_3D('',#1695,#1439,#1440);
#1309=AXIS2_PLACEMENT_3D('',#1697,#1441,#1442);
#1310=AXIS2_PLACEMENT_3D('',#1714,#1451,#1452);
#1311=AXIS2_PLACEMENT_3D('',#1723,#1457,#1458);
#1312=AXIS2_PLACEMENT_3D('',#1732,#1463,#1464);
#1313=AXIS2_PLACEMENT_3D('',#1738,#1468,#1469);
#1314=AXIS2_PLACEMENT_3D('',#1747,#1474,#1475);
#1315=AXIS2_PLACEMENT_3D('',#1753,#1479,#1480);
#1316=AXIS2_PLACEMENT_3D('',#1756,#1483,#1484);
#1317=AXIS2_PLACEMENT_3D('',#1762,#1488,#1489);
#1318=AXIS2_PLACEMENT_3D('',#1768,#1493,#1494);
#1319=AXIS2_PLACEMENT_3D('',#1775,#1499,#1500);
#1320=AXIS2_PLACEMENT_3D('',#1776,#1501,#1502);
#1321=AXIS2_PLACEMENT_3D('',#1778,#1503,#1504);
#1322=AXIS2_PLACEMENT_3D('',#1779,#1505,#1506);
#1323=AXIS2_PLACEMENT_3D('',#1781,#1507,#1508);
#1324=AXIS2_PLACEMENT_3D('',#1782,#1509,#1510);
#1325=AXIS2_PLACEMENT_3D('',#1784,#1511,#1512);
#1326=AXIS2_PLACEMENT_3D('',#1793,#1517,#1518);
#1327=AXIS2_PLACEMENT_3D('',#1794,#1519,#1520);
#1328=AXIS2_PLACEMENT_3D('',#1796,#1521,#1522);
#1329=AXIS2_PLACEMENT_3D('',#1797,#1523,#1524);
#1330=AXIS2_PLACEMENT_3D('',#1799,#1525,#1526);
#1331=AXIS2_PLACEMENT_3D('',#1800,#1527,#1528);
#1332=AXIS2_PLACEMENT_3D('',#1802,#1529,#1530);
#1333=AXIS2_PLACEMENT_3D('',#1803,#1531,#1532);
#1334=AXIS2_PLACEMENT_3D('',#1805,#1533,#1534);
#1335=AXIS2_PLACEMENT_3D('',#1816,#1541,#1542);
#1336=AXIS2_PLACEMENT_3D('',#1825,#1547,#1548);
#1337=AXIS2_PLACEMENT_3D('',#1831,#1552,#1553);
#1338=AXIS2_PLACEMENT_3D('',#1834,#1556,#1557);
#1339=AXIS2_PLACEMENT_3D('',#1842,#1563,#1564);
#1340=AXIS2_PLACEMENT_3D('',#1848,#1568,#1569);
#1341=AXIS2_PLACEMENT_3D('',#1854,#1573,#1574);
#1342=AXIS2_PLACEMENT_3D('',#1860,#1578,#1579);
#1343=AXIS2_PLACEMENT_3D('',#1864,#1582,#1583);
#1344=AXIS2_PLACEMENT_3D('',#1869,#1587,#1588);
#1345=AXIS2_PLACEMENT_3D('',#1875,#1592,#1593);
#1346=AXIS2_PLACEMENT_3D('',#1881,#1597,#1598);
#1347=AXIS2_PLACEMENT_3D('',#1887,#1603,#1604);
#1348=AXIS2_PLACEMENT_3D('',#1889,#1606,#1607);
#1349=AXIS2_PLACEMENT_3D('',#1891,#1609,#1610);
#1350=AXIS2_PLACEMENT_3D('',#1899,#1615,#1616);
#1351=AXIS2_PLACEMENT_3D('',#1905,#1620,#1621);
#1352=AXIS2_PLACEMENT_3D('',#1909,#1624,#1625);
#1353=AXIS2_PLACEMENT_3D('',#1913,#1628,#1629);
#1354=AXIS2_PLACEMENT_3D('',#1915,#1631,#1632);
#1355=DIRECTION('',(0.,0.,1.));
#1356=DIRECTION('',(1.,0.,0.));
#1357=DIRECTION('',(-6.98296672221876E-15,-1.,0.));
#1358=DIRECTION('',(-1.05097384824362E-45,0.,1.));
#1359=DIRECTION('',(-6.98296672221876E-15,-1.,0.));
#1360=DIRECTION('',(1.,-6.98296672221876E-15,-2.52364923020785E-29));
#1361=DIRECTION('',(-6.98296672221876E-15,-1.,0.));
#1362=DIRECTION('',(-1.05097384824362E-45,0.,1.));
#1363=DIRECTION('',(-6.98296672221876E-15,-1.,0.));
#1364=DIRECTION('',(1.,-6.98296672221876E-15,-2.52364923020785E-29));
#1365=DIRECTION('',(-6.98296672221876E-15,-1.,0.));
#1366=DIRECTION('',(-1.05097384824362E-45,0.,1.));
#1367=DIRECTION('',(-6.98296672221876E-15,-1.,0.));
#1368=DIRECTION('',(1.,-6.98296672221876E-15,-2.52364923020785E-29));
#1369=DIRECTION('',(-6.98296672221876E-15,-1.,0.));
#1370=DIRECTION('',(-1.05097384824362E-45,0.,1.));
#1371=DIRECTION('',(-6.98296672221876E-15,-1.,0.));
#1372=DIRECTION('',(-8.55580180271215E-31,-2.67084170173705E-16,1.));
#1373=DIRECTION('',(-6.98296672221876E-15,-1.,0.));
#1374=DIRECTION('',(-1.05097384824362E-45,0.,1.));
#1375=DIRECTION('',(-6.98296672221876E-15,-1.,0.));
#1376=DIRECTION('',(1.,-6.98296672221876E-15,-2.52364923020785E-29));
#1377=DIRECTION('',(-6.98296672221876E-15,-1.,0.));
#1378=DIRECTION('',(-1.05097384824362E-45,0.,1.));
#1379=DIRECTION('',(-6.98296672221876E-15,-1.,0.));
#1380=DIRECTION('',(1.,-6.98296672221876E-15,-2.52364923020785E-29));
#1381=DIRECTION('',(-6.98296672221876E-15,-1.,0.));
#1382=DIRECTION('',(-1.05097384824362E-45,0.,1.));
#1383=DIRECTION('',(-6.98296672221876E-15,-1.,0.));
#1384=DIRECTION('',(1.,-6.98296672221876E-15,-2.52364923020785E-29));
#1385=DIRECTION('',(-6.98296672221876E-15,-1.,-1.11200222819026E-16));
#1386=DIRECTION('',(-8.55580180271215E-31,-2.67084170173705E-16,1.));
#1387=DIRECTION('',(-6.98296672221876E-15,-1.,0.));
#1388=DIRECTION('',(-8.55580180271215E-31,-2.67084170173705E-16,1.));
#1389=DIRECTION('',(-6.98296672221876E-15,-1.,-1.11200222819026E-16));
#1390=DIRECTION('',(-8.55580180271215E-31,-2.67084170173705E-16,1.));
#1391=DIRECTION('',(-6.98296672221876E-15,-1.,0.));
#1392=DIRECTION('',(-8.55580180271215E-31,-2.67084170173705E-16,1.));
#1393=DIRECTION('',(-6.98296672221876E-15,-1.,-1.11200222819026E-16));
#1394=DIRECTION('',(-8.55580180271215E-31,-2.67084170173705E-16,1.));
#1395=DIRECTION('',(-6.98296672221876E-15,-1.,0.));
#1396=DIRECTION('',(-8.55580180271215E-31,-2.67084170173705E-16,1.));
#1397=DIRECTION('',(-6.98296672221876E-15,-1.,-1.11200222819026E-16));
#1398=DIRECTION('',(-8.55580180271215E-31,-2.67084170173705E-16,1.));
#1399=DIRECTION('',(-6.98296672221876E-15,-1.,0.));
#1400=DIRECTION('',(-8.55580180271215E-31,-2.67084170173705E-16,1.));
#1401=DIRECTION('',(-6.98296672221876E-15,-1.,-1.11200222819026E-16));
#1402=DIRECTION('',(-8.55580180271215E-31,-2.67084170173705E-16,1.));
#1403=DIRECTION('',(-6.98296672221876E-15,-1.,0.));
#1404=DIRECTION('',(-8.55580180271215E-31,-2.67084170173705E-16,1.));
#1405=DIRECTION('',(-6.98296672221876E-15,-1.,-1.11200222819026E-16));
#1406=DIRECTION('',(-8.55580180271215E-31,-2.67084170173705E-16,1.));
#1407=DIRECTION('',(-6.98296672221876E-15,-1.,0.));
#1408=DIRECTION('',(-8.55580180271215E-31,-2.67084170173705E-16,1.));
#1409=DIRECTION('',(-6.98296672221876E-15,-1.,-1.11200222819026E-16));
#1410=DIRECTION('',(-8.55580180271215E-31,-2.67084170173705E-16,1.));
#1411=DIRECTION('',(-6.98296672221876E-15,-1.,0.));
#1412=DIRECTION('',(-8.55580180271215E-31,-2.67084170173705E-16,1.));
#1413=DIRECTION('',(8.90699728308655E-31,1.27553196763E-16,-1.));
#1414=DIRECTION('',(-6.98296672221876E-15,-1.,-1.27553196763E-16));
#1415=DIRECTION('',(8.90699728308655E-31,1.27553196763E-16,-1.));
#1416=DIRECTION('',(-1.09131987080657E-46,1.,1.27553196763E-16));
#1417=DIRECTION('',(8.90699728308655E-31,1.27553196763E-16,-1.));
#1418=DIRECTION('',(-6.98296672221876E-15,-1.,-1.27553196763E-16));
#1419=DIRECTION('',(8.90699728308655E-31,1.27553196763E-16,-1.));
#1420=DIRECTION('',(-1.09131987080657E-46,1.,1.27553196763E-16));
#1421=DIRECTION('',(8.90699728308655E-31,1.27553196763E-16,-1.));
#1422=DIRECTION('',(-6.98296672221876E-15,-1.,-1.27553196763E-16));
#1423=DIRECTION('',(8.90699728308655E-31,1.27553196763E-16,-1.));
#1424=DIRECTION('',(-1.09131987080657E-46,1.,1.27553196763E-16));
#1425=DIRECTION('',(8.90699728308655E-31,1.27553196763E-16,-1.));
#1426=DIRECTION('',(-6.98296672221876E-15,-1.,-1.27553196763E-16));
#1427=DIRECTION('',(8.90699728308655E-31,1.27553196763E-16,-1.));
#1428=DIRECTION('',(-1.09131987080657E-46,1.,1.27553196763E-16));
#1429=DIRECTION('',(8.90699728308655E-31,1.27553196763E-16,-1.));
#1430=DIRECTION('',(-6.98296672221876E-15,-1.,-1.27553196763E-16));
#1431=DIRECTION('',(8.90699728308655E-31,1.27553196763E-16,-1.));
#1432=DIRECTION('',(-6.93889390390722E-15,-1.,-2.67084170173705E-16));
#1433=DIRECTION('',(8.90699728308655E-31,1.27553196763E-16,-1.));
#1434=DIRECTION('',(-6.98296672221876E-15,-1.,-1.27553196763E-16));
#1435=DIRECTION('',(8.90699728308655E-31,1.27553196763E-16,-1.));
#1436=DIRECTION('',(-1.09131987080657E-46,1.,1.27553196763E-16));
#1437=DIRECTION('',(8.90699728308655E-31,1.27553196763E-16,-1.));
#1438=DIRECTION('',(-6.98296672221876E-15,-1.,-1.27553196763E-16));
#1439=DIRECTION('',(8.90699728308655E-31,1.27553196763E-16,-1.));
#1440=DIRECTION('',(-1.09131987080657E-46,1.,1.27553196763E-16));
#1441=DIRECTION('',(-1.42917559100362E-16,0.,1.));
#1442=DIRECTION('',(-1.,6.98296672221876E-15,-1.42917559100362E-16));
#1443=DIRECTION('',(-6.98296672221876E-15,-1.,0.));
#1444=DIRECTION('',(1.,-6.98296672221876E-15,1.42917559100362E-16));
#1445=DIRECTION('',(-6.98296672221876E-15,-1.,0.));
#1446=DIRECTION('',(-1.,6.98296672221876E-15,-1.42917559100362E-16));
#1447=DIRECTION('',(-6.98296672221876E-15,-1.,0.));
#1448=DIRECTION('',(1.,-6.98296672221876E-15,1.42917559100362E-16));
#1449=DIRECTION('',(6.98296672221876E-15,1.,0.));
#1450=DIRECTION('',(-1.,6.98296672221876E-15,-1.42917559100362E-16));
#1451=DIRECTION('',(-8.41216410069285E-31,-1.20466908053945E-16,-1.));
#1452=DIRECTION('',(-6.98296672221876E-15,-1.,1.20466908053945E-16));
#1453=DIRECTION('',(-1.,6.98296672221876E-15,0.));
#1454=DIRECTION('',(-6.98296672221876E-15,-1.,1.20466908053945E-16));
#1455=DIRECTION('',(-1.,6.98296672221876E-15,0.));
#1456=DIRECTION('',(6.98296672221876E-15,1.,-1.20466908053945E-16));
#1457=DIRECTION('',(-6.98296672221876E-15,-1.,2.06514699521045E-16));
#1458=DIRECTION('',(1.44208527440449E-30,2.06514699521045E-16,1.));
#1459=DIRECTION('',(-1.44208527440449E-30,-2.06514699521045E-16,-1.));
#1460=DIRECTION('',(1.,-6.98296672221876E-15,0.));
#1461=DIRECTION('',(-1.44208527440449E-30,-2.06514699521045E-16,-1.));
#1462=DIRECTION('',(1.,-6.98296672221876E-15,0.));
#1463=DIRECTION('',(1.18276600634782E-16,0.,-1.));
#1464=DIRECTION('',(1.,-6.98296672221876E-15,1.18276600634782E-16));
#1465=DIRECTION('',(1.,-6.98296672221876E-15,1.18276600634782E-16));
#1466=DIRECTION('',(-6.98296672221876E-15,-1.,0.));
#1467=DIRECTION('',(-6.98296672221876E-15,-1.,0.));
#1468=DIRECTION('',(1.26182461510393E-30,1.80700362080915E-16,1.));
#1469=DIRECTION('',(6.98296672221876E-15,1.,-1.80700362080915E-16));
#1470=DIRECTION('',(-1.,6.98296672221876E-15,0.));
#1471=DIRECTION('',(6.98296672221876E-15,1.,-1.80700362080915E-16));
#1472=DIRECTION('',(-1.,6.98296672221876E-15,0.));
#1473=DIRECTION('',(-6.98296672221876E-15,-1.,1.80700362080915E-16));
#1474=DIRECTION('',(-4.93770312208091E-15,-0.707106781186551,-0.707106781186544));
#1475=DIRECTION('',(-4.93770312208086E-15,-0.707106781186544,0.707106781186551));
#1476=DIRECTION('',(4.93770312208086E-15,0.707106781186544,-0.707106781186551));
#1477=DIRECTION('',(1.,-6.98296672221876E-15,0.));
#1478=DIRECTION('',(4.93770312208086E-15,0.707106781186544,-0.707106781186551));
#1479=DIRECTION('',(6.98296672221876E-15,1.,0.));
#1480=DIRECTION('',(1.05097384824362E-45,0.,-1.));
#1481=DIRECTION('',(1.05097384824362E-45,0.,-1.));
#1482=DIRECTION('',(-1.05097384824362E-45,0.,1.));
#1483=DIRECTION('',(6.98296672221876E-15,1.,0.));
#1484=DIRECTION('',(1.05097384824362E-45,0.,-1.));
#1485=DIRECTION('',(1.,-6.98296672221876E-15,0.));
#1486=DIRECTION('',(-1.05097384824362E-45,0.,1.));
#1487=DIRECTION('',(-1.42917559100362E-16,0.,1.));
#1488=DIRECTION('',(6.98296672221876E-15,1.,0.));
#1489=DIRECTION('',(1.05097384824362E-45,0.,-1.));
#1490=DIRECTION('',(1.,-6.98296672221876E-15,0.));
#1491=DIRECTION('',(-1.42917559100362E-16,0.,1.));
#1492=DIRECTION('',(-1.05097384824362E-45,0.,1.));
#1493=DIRECTION('',(-6.98296672221876E-15,-1.,0.));
#1494=DIRECTION('',(-1.05097384824362E-45,0.,1.));
#1495=DIRECTION('',(1.1945323709251E-59,0.,-1.));
#1496=DIRECTION('',(-1.1945323709251E-59,0.,1.));
#1497=DIRECTION('',(-1.,6.98296672221876E-15,-1.42917559100362E-16));
#1498=DIRECTION('',(-1.,6.98296672221876E-15,-1.42917559100362E-16));
#1499=DIRECTION('',(8.90699728308655E-31,1.27553196763E-16,-1.));
#1500=DIRECTION('',(-1.38777878078144E-14,-1.,-2.67084170173705E-16));
#1501=DIRECTION('',(1.05097384824362E-45,0.,-1.));
#1502=DIRECTION('',(-1.,6.93889390390722E-15,2.50718128448177E-29));
#1503=DIRECTION('',(8.90699728308655E-31,1.27553196763E-16,-1.));
#1504=DIRECTION('',(-6.93889390390722E-15,-1.,-2.67084170173705E-16));
#1505=DIRECTION('',(1.05097384824362E-45,0.,-1.));
#1506=DIRECTION('',(-1.,6.93889390390722E-15,2.50718128448177E-29));
#1507=DIRECTION('',(8.90699728308655E-31,1.27553196763E-16,-1.));
#1508=DIRECTION('',(-6.93889390390722E-15,-1.,-2.67084170173705E-16));
#1509=DIRECTION('',(1.05097384824362E-45,0.,-1.));
#1510=DIRECTION('',(-1.,6.93889390390722E-15,2.50718128448177E-29));
#1511=DIRECTION('',(6.98296672221876E-15,1.,0.));
#1512=DIRECTION('',(1.05097384824362E-45,0.,-1.));
#1513=DIRECTION('',(1.05097384824362E-45,0.,-1.));
#1514=DIRECTION('',(1.,-6.98296672221876E-15,0.));
#1515=DIRECTION('',(1.05097384824362E-45,0.,-1.));
#1516=DIRECTION('',(1.,-6.98296672221876E-15,5.22443642301353E-31));
#1517=DIRECTION('',(8.90699728308655E-31,1.27553196763E-16,-1.));
#1518=DIRECTION('',(-6.93889390390722E-15,-1.,-2.67084170173705E-16));
#1519=DIRECTION('',(1.05097384824362E-45,0.,-1.));
#1520=DIRECTION('',(-1.,6.93889390390722E-15,2.50718128448177E-29));
#1521=DIRECTION('',(8.90699728308655E-31,1.27553196763E-16,-1.));
#1522=DIRECTION('',(-6.93889390390722E-15,-1.,-2.67084170173705E-16));
#1523=DIRECTION('',(1.05097384824362E-45,0.,-1.));
#1524=DIRECTION('',(-1.,6.93889390390722E-15,2.50718128448177E-29));
#1525=DIRECTION('',(8.90699728308655E-31,1.27553196763E-16,-1.));
#1526=DIRECTION('',(-6.93889390390722E-15,-1.,-2.67084170173705E-16));
#1527=DIRECTION('',(1.05097384824362E-45,0.,-1.));
#1528=DIRECTION('',(-1.,6.93889390390722E-15,2.50718128448177E-29));
#1529=DIRECTION('',(8.90699728308655E-31,1.27553196763E-16,-1.));
#1530=DIRECTION('',(-6.93889390390722E-15,-1.,-2.67084170173705E-16));
#1531=DIRECTION('',(1.05097384824362E-45,0.,-1.));
#1532=DIRECTION('',(-1.,6.93889390390722E-15,2.50718128448177E-29));
#1533=DIRECTION('',(6.98296672221876E-15,1.,0.));
#1534=DIRECTION('',(1.05097384824362E-45,0.,-1.));
#1535=DIRECTION('',(-1.05097384824362E-45,0.,1.));
#1536=DIRECTION('',(-1.,6.98296672221876E-15,0.));
#1537=DIRECTION('',(1.1945323709251E-59,0.,-1.));
#1538=DIRECTION('',(-1.1945323709251E-59,0.,1.));
#1539=DIRECTION('',(-1.05097384824362E-45,0.,1.));
#1540=DIRECTION('',(1.,-6.98296672221876E-15,0.));
#1541=DIRECTION('',(6.98296672221876E-15,1.,0.));
#1542=DIRECTION('',(1.05097384824362E-45,0.,-1.));
#1543=DIRECTION('',(-1.,6.98296672221876E-15,0.));
#1544=DIRECTION('',(1.05097384824362E-45,0.,-1.));
#1545=DIRECTION('',(-1.,6.98296672221876E-15,0.));
#1546=DIRECTION('',(1.05097384824362E-45,0.,-1.));
#1547=DIRECTION('',(-8.41216410069285E-31,-1.20466908053945E-16,-1.));
#1548=DIRECTION('',(-6.98296672221876E-15,-1.,1.20466908053945E-16));
#1549=DIRECTION('',(-6.98296672221876E-15,-1.,1.20466908053945E-16));
#1550=DIRECTION('',(-1.,6.98296672221876E-15,0.));
#1551=DIRECTION('',(-6.98296672221876E-15,-1.,1.20466908053945E-16));
#1552=DIRECTION('',(1.26182461510393E-30,1.80700362080915E-16,1.));
#1553=DIRECTION('',(6.98296672221876E-15,1.,-1.80700362080915E-16));
#1554=DIRECTION('',(6.98296672221876E-15,1.,-1.80700362080915E-16));
#1555=DIRECTION('',(6.98296672221876E-15,1.,-1.80700362080915E-16));
#1556=DIRECTION('',(6.98296672221876E-15,1.,0.));
#1557=DIRECTION('',(1.05097384824362E-45,0.,-1.));
#1558=DIRECTION('',(-1.05097384824362E-45,0.,1.));
#1559=DIRECTION('',(-1.1945323709251E-59,0.,1.));
#1560=DIRECTION('',(1.1945323709251E-59,0.,-1.));
#1561=DIRECTION('',(-1.05097384824362E-45,0.,1.));
#1562=DIRECTION('',(1.,-6.98296672221876E-15,0.));
#1563=DIRECTION('',(-1.,6.98296672221876E-15,0.));
#1564=DIRECTION('',(1.05097384824362E-45,0.,-1.));
#1565=DIRECTION('',(-6.98296672221876E-15,-1.,0.));
#1566=DIRECTION('',(-1.42917559100362E-16,0.,1.));
#1567=DIRECTION('',(-6.98296672221876E-15,-1.,0.));
#1568=DIRECTION('',(-1.,6.98296672221876E-15,-1.42917559100362E-16));
#1569=DIRECTION('',(1.42917559100362E-16,0.,-1.));
#1570=DIRECTION('',(-6.98296672221876E-15,-1.,0.));
#1571=DIRECTION('',(-6.98296672221876E-15,-1.,-4.73316543132607E-30));
#1572=DIRECTION('',(-1.42917559100362E-16,0.,1.));
#1573=DIRECTION('',(3.59270673887323E-15,0.514495755427527,0.857492925712544));
#1574=DIRECTION('',(5.9878445647887E-15,0.857492925712544,-0.514495755427527));
#1575=DIRECTION('',(5.9878445647887E-15,0.857492925712544,-0.514495755427527));
#1576=DIRECTION('',(5.9878445647887E-15,0.857492925712544,-0.514495755427527));
#1577=DIRECTION('',(1.,-6.98296672221876E-15,9.16874094911853E-31));
#1578=DIRECTION('',(-1.,6.98296672221876E-15,0.));
#1579=DIRECTION('',(-1.05097384824362E-45,0.,1.));
#1580=DIRECTION('',(-6.98296672221876E-15,-1.,0.));
#1581=DIRECTION('',(8.5513854165593E-31,1.22460635382235E-16,1.));
#1582=DIRECTION('',(1.,-6.98296672221876E-15,0.));
#1583=DIRECTION('',(-1.05097384824362E-45,0.,1.));
#1584=DIRECTION('',(-6.98296672221876E-15,-1.,0.));
#1585=DIRECTION('',(1.05097384824362E-45,0.,-1.));
#1586=DIRECTION('',(6.98296672221876E-15,1.,0.));
#1587=DIRECTION('',(1.,-6.98296672221876E-15,1.42917559100362E-16));
#1588=DIRECTION('',(-1.42917559100362E-16,0.,1.));
#1589=DIRECTION('',(6.98296672221876E-15,1.,0.));
#1590=DIRECTION('',(-1.42917559100362E-16,0.,1.));
#1591=DIRECTION('',(6.98296672221876E-15,1.,4.73316543132607E-30));
#1592=DIRECTION('',(1.,-6.98296672221876E-15,0.));
#1593=DIRECTION('',(-1.05097384824362E-45,0.,1.));
#1594=DIRECTION('',(6.98296672221876E-15,1.,0.));
#1595=DIRECTION('',(-1.42917559100362E-16,0.,1.));
#1596=DIRECTION('',(6.98296672221876E-15,1.,4.73316543132607E-30));
#1597=DIRECTION('',(1.1945323709251E-59,0.,-1.));
#1598=DIRECTION('',(1.,-6.98296672221876E-15,0.));
#1599=DIRECTION('',(1.,-6.98296672221876E-15,0.));
#1600=DIRECTION('',(1.,-6.98296672221876E-15,0.));
#1601=DIRECTION('',(1.,-6.98296672221876E-15,0.));
#1602=DIRECTION('',(6.98296672221876E-15,1.,0.));
#1603=DIRECTION('',(-1.42917559100362E-16,0.,1.));
#1604=DIRECTION('',(-1.,6.98296672221876E-15,-1.42917559100362E-16));
#1605=DIRECTION('',(-1.,6.98296672221876E-15,-1.42917559100362E-16));
#1606=DIRECTION('',(-1.42917559100362E-16,0.,1.));
#1607=DIRECTION('',(-1.,6.98296672221876E-15,-1.42917559100362E-16));
#1608=DIRECTION('',(-1.,6.98296672221876E-15,-1.42917559100362E-16));
#1609=DIRECTION('',(-1.1945323709251E-59,0.,1.));
#1610=DIRECTION('',(-1.,6.98296672221876E-15,0.));
#1611=DIRECTION('',(-6.98296672221876E-15,-1.,0.));
#1612=DIRECTION('',(-1.,6.98296672221876E-15,0.));
#1613=DIRECTION('',(-6.98296672221876E-15,-1.,0.));
#1614=DIRECTION('',(1.,-6.98296672221876E-15,0.));
#1615=DIRECTION('',(6.98296672221876E-15,1.,0.));
#1616=DIRECTION('',(1.05097384824362E-45,0.,-1.));
#1617=DIRECTION('',(1.05097384824362E-45,0.,-1.));
#1618=DIRECTION('',(-1.,6.98296672221876E-15,0.));
#1619=DIRECTION('',(1.05097384824362E-45,0.,-1.));
#1620=DIRECTION('',(1.,-6.98296672221876E-15,0.));
#1621=DIRECTION('',(-1.05097384824362E-45,0.,1.));
#1622=DIRECTION('',(1.05097384824362E-45,0.,-1.));
#1623=DIRECTION('',(5.9878445647887E-15,0.857492925712544,-0.514495755427527));
#1624=DIRECTION('',(-6.98296672221876E-15,-1.,0.));
#1625=DIRECTION('',(-1.05097384824362E-45,0.,1.));
#1626=DIRECTION('',(8.5513854165593E-31,1.22460635382235E-16,1.));
#1627=DIRECTION('',(-1.,6.98296672221876E-15,0.));
#1628=DIRECTION('',(1.,-6.98296672221876E-15,0.));
#1629=DIRECTION('',(-1.05097384824362E-45,0.,1.));
#1630=DIRECTION('',(5.9878445647887E-15,0.857492925712544,-0.514495755427527));
#1631=DIRECTION('',(3.59270673887323E-15,0.514495755427527,0.857492925712544));
#1632=DIRECTION('',(5.9878445647887E-15,0.857492925712544,-0.514495755427527));
#1633=CARTESIAN_POINT('',(0.,0.,0.));
#1634=CARTESIAN_POINT('',(-0.0045,-0.00183177491359375,0.0024));
#1635=CARTESIAN_POINT('',(0.0015,-0.00183177491359375,0.0024));
#1636=CARTESIAN_POINT('',(0.00175,-0.00183177491359375,0.0024));
#1637=CARTESIAN_POINT('',(-0.0045,-0.00183177491359375,0.0024));
#1638=CARTESIAN_POINT('',(3.46944695195361E-18,-0.00183177491359375,0.0024));
#1639=CARTESIAN_POINT('',(0.000250000000000003,-0.00183177491359375,0.0024));
#1640=CARTESIAN_POINT('',(-0.0045,-0.00183177491359375,0.0024));
#1641=CARTESIAN_POINT('',(-0.0015,-0.00183177491359375,0.0024));
#1642=CARTESIAN_POINT('',(-0.00125,-0.00183177491359375,0.0024));
#1643=CARTESIAN_POINT('',(-0.0045,-0.00183177491359375,0.0024));
#1644=CARTESIAN_POINT('',(-0.0045,-0.00183177491359375,0.0024));
#1645=CARTESIAN_POINT('',(-0.0045,-0.00183177491359375,0.00265));
#1646=CARTESIAN_POINT('',(-0.0045,-0.00183177491359375,0.0024));
#1647=CARTESIAN_POINT('',(0.003,-0.00183177491359381,0.0024));
#1648=CARTESIAN_POINT('',(0.00325,-0.00183177491359382,0.0024));
#1649=CARTESIAN_POINT('',(-0.0045,-0.00183177491359375,0.0024));
#1650=CARTESIAN_POINT('',(0.0045,-0.00183177491359382,0.0024));
#1651=CARTESIAN_POINT('',(0.00475,-0.00183177491359383,0.0024));
#1652=CARTESIAN_POINT('',(-0.0045,-0.00183177491359375,0.0024));
#1653=CARTESIAN_POINT('',(-0.003,-0.00183177491359375,0.0024));
#1654=CARTESIAN_POINT('',(-0.00275,-0.00183177491359375,0.0024));
#1655=CARTESIAN_POINT('',(0.0015,0.00277533186759274,0.0024));
#1656=CARTESIAN_POINT('',(0.0015,0.0005682250864062,0.0024));
#1657=CARTESIAN_POINT('',(0.0015,0.0005682250864062,0.00265));
#1658=CARTESIAN_POINT('',(3.46944695195361E-18,0.00277533186759275,0.0024));
#1659=CARTESIAN_POINT('',(3.46944695195361E-18,0.00056822508640621,0.0024));
#1660=CARTESIAN_POINT('',(3.46944695195361E-18,0.00056822508640621,0.00265));
#1661=CARTESIAN_POINT('',(-0.0015,0.00277533186759277,0.0024));
#1662=CARTESIAN_POINT('',(-0.0015,0.000568225086406255,0.0024));
#1663=CARTESIAN_POINT('',(-0.0015,0.000568225086406255,0.00265));
#1664=CARTESIAN_POINT('',(-0.0045,0.00277533186759279,0.0024));
#1665=CARTESIAN_POINT('',(-0.0045,0.000568225086406255,0.0024));
#1666=CARTESIAN_POINT('',(-0.0045,0.000568225086406255,0.00265));
#1667=CARTESIAN_POINT('',(0.003,0.00277533186759273,0.0024));
#1668=CARTESIAN_POINT('',(0.003,0.000568225086406186,0.0024));
#1669=CARTESIAN_POINT('',(0.003,0.000568225086406186,0.00265));
#1670=CARTESIAN_POINT('',(0.0045,0.00277533186759272,0.0024));
#1671=CARTESIAN_POINT('',(0.0045,0.000568225086406176,0.0024));
#1672=CARTESIAN_POINT('',(0.0045,0.000568225086406176,0.00265));
#1673=CARTESIAN_POINT('',(-0.003,0.00277533186759278,0.0024));
#1674=CARTESIAN_POINT('',(-0.003,0.000568225086406255,0.0024));
#1675=CARTESIAN_POINT('',(-0.003,0.000568225086406255,0.00265));
#1676=CARTESIAN_POINT('',(-0.0045,0.00206822508640624,-0.0027));
#1677=CARTESIAN_POINT('',(0.0045,0.00206822508640618,-0.0027));
#1678=CARTESIAN_POINT('',(0.0045,0.00231822508640618,-0.0027));
#1679=CARTESIAN_POINT('',(-0.0045,0.00206822508640624,-0.0027));
#1680=CARTESIAN_POINT('',(0.0015,0.0020682250864062,-0.0027));
#1681=CARTESIAN_POINT('',(0.0015,0.0023182250864062,-0.0027));
#1682=CARTESIAN_POINT('',(-0.0045,0.00206822508640624,-0.0027));
#1683=CARTESIAN_POINT('',(3.46944695195361E-18,0.00206822508640621,-0.0027));
#1684=CARTESIAN_POINT('',(3.46944695195361E-18,0.00231822508640621,-0.0027));
#1685=CARTESIAN_POINT('',(-0.0045,0.00206822508640624,-0.0027));
#1686=CARTESIAN_POINT('',(-0.003,0.00206822508640623,-0.0027));
#1687=CARTESIAN_POINT('',(-0.003,0.00231822508640623,-0.0027));
#1688=CARTESIAN_POINT('',(-0.0045,0.00206822508640624,-0.0027));
#1689=CARTESIAN_POINT('',(-0.0045,0.00206822508640624,-0.0027));
#1690=CARTESIAN_POINT('',(-0.0045,0.00181822508640624,-0.0027));
#1691=CARTESIAN_POINT('',(-0.0045,0.00206822508640624,-0.0027));
#1692=CARTESIAN_POINT('',(-0.0015,0.00206822508640622,-0.0027));
#1693=CARTESIAN_POINT('',(-0.0015,0.00231822508640622,-0.0027));
#1694=CARTESIAN_POINT('',(-0.0045,0.00206822508640624,-0.0027));
#1695=CARTESIAN_POINT('',(0.003,0.00206822508640619,-0.0027));
#1696=CARTESIAN_POINT('',(0.003,0.00231822508640619,-0.0027));
#1697=CARTESIAN_POINT('',(0.0055,0.000568225086406172,0.0033));
#1698=CARTESIAN_POINT('',(0.0048,0.00246822508640617,0.0033));
#1699=CARTESIAN_POINT('',(0.0048,0.000568225086406177,0.0033));
#1700=CARTESIAN_POINT('',(0.0048,-0.000731774913593828,0.0033));
#1701=CARTESIAN_POINT('',(0.0055,-0.000731774913593828,0.0033));
#1702=CARTESIAN_POINT('',(0.0055,-0.000731774913593828,0.0033));
#1703=CARTESIAN_POINT('',(0.0055,0.000568225086406172,0.0033));
#1704=CARTESIAN_POINT('',(0.0055,-0.00253177491359383,0.0033));
#1705=CARTESIAN_POINT('',(0.0055,-0.00253177491359383,0.0033));
#1706=CARTESIAN_POINT('',(-0.0055,-0.00253177491359375,0.0033));
#1707=CARTESIAN_POINT('',(-0.0055,0.000568225086406252,0.0033));
#1708=CARTESIAN_POINT('',(-0.0055,-0.000731774913593748,0.0033));
#1709=CARTESIAN_POINT('',(0.0055,-0.000731774913593828,0.0033));
#1710=CARTESIAN_POINT('',(-0.0048,-0.000731774913593748,0.0033));
#1711=CARTESIAN_POINT('',(-0.0048,0.00246822508640625,0.0033));
#1712=CARTESIAN_POINT('',(-0.0048,0.000568225086406252,0.0033));
#1713=CARTESIAN_POINT('',(0.0055,0.000568225086406172,0.0033));
#1714=CARTESIAN_POINT('',(0.006,-0.00253177491359383,0.00195));
#1715=CARTESIAN_POINT('',(0.006,-0.00253177491359383,0.00195));
#1716=CARTESIAN_POINT('',(0.006,-0.00253177491359383,0.00195));
#1717=CARTESIAN_POINT('',(0.0055,-0.00253177491359383,0.00195));
#1718=CARTESIAN_POINT('',(0.006,-0.00253177491359383,0.00195));
#1719=CARTESIAN_POINT('',(0.006,-0.000731774913593833,0.00195));
#1720=CARTESIAN_POINT('',(0.006,-0.000731774913593833,0.00195));
#1721=CARTESIAN_POINT('',(0.0055,-0.000731774913593833,0.00195));
#1722=CARTESIAN_POINT('',(0.0055,0.000568225086406172,0.00195));
#1723=CARTESIAN_POINT('',(-0.0055,0.000868225086406262,0.000599999999999992));
#1724=CARTESIAN_POINT('',(0.0055,0.000868225086406172,0.000599999999999992));
#1725=CARTESIAN_POINT('',(0.0055,0.000868225086406168,0.00165));
#1726=CARTESIAN_POINT('',(0.0055,0.000868225086406172,0.000599999999999992));
#1727=CARTESIAN_POINT('',(-0.0055,0.000868225086406258,0.00165));
#1728=CARTESIAN_POINT('',(-0.0055,0.000868225086406258,0.00165));
#1729=CARTESIAN_POINT('',(-0.0055,0.000868225086406262,0.000599999999999992));
#1730=CARTESIAN_POINT('',(-0.0055,0.000868225086406262,0.000599999999999992));
#1731=CARTESIAN_POINT('',(-0.0055,0.000868225086406262,0.000599999999999992));
#1732=CARTESIAN_POINT('',(0.0055,0.000568225086406172,0.000599999999999991));
#1733=CARTESIAN_POINT('',(0.0055,-0.00253177491359383,0.00059999999999998));
#1734=CARTESIAN_POINT('',(-0.0055,-0.00253177491359374,0.00059999999999998));
#1735=CARTESIAN_POINT('',(0.0055,-0.00253177491359383,0.00059999999999998));
#1736=CARTESIAN_POINT('',(0.0055,0.000568225086406172,0.000599999999999991));
#1737=CARTESIAN_POINT('',(-0.0055,0.000568225086406262,0.000599999999999991));
#1738=CARTESIAN_POINT('',(0.006,-0.00253177491359383,0.00275));
#1739=CARTESIAN_POINT('',(0.006,-0.000731774913593836,0.00275));
#1740=CARTESIAN_POINT('',(0.006,-0.000731774913593836,0.00275));
#1741=CARTESIAN_POINT('',(0.0055,-0.000731774913593826,0.00275));
#1742=CARTESIAN_POINT('',(0.006,-0.00253177491359383,0.00275));
#1743=CARTESIAN_POINT('',(0.006,-0.00253177491359383,0.00275));
#1744=CARTESIAN_POINT('',(0.006,-0.00253177491359383,0.00275));
#1745=CARTESIAN_POINT('',(0.0055,-0.00253177491359382,0.00275));
#1746=CARTESIAN_POINT('',(0.0055,0.000568225086406169,0.00275));
#1747=CARTESIAN_POINT('',(-0.0055,0.000868225086406258,0.00165));
#1748=CARTESIAN_POINT('',(0.0055,0.000868225086406168,0.00165));
#1749=CARTESIAN_POINT('',(0.0055,0.000568225086406172,0.00195));
#1750=CARTESIAN_POINT('',(-0.0055,0.000568225086406257,0.00195));
#1751=CARTESIAN_POINT('',(-0.0055,0.000568225086406257,0.00195));
#1752=CARTESIAN_POINT('',(-0.0055,0.000868225086406258,0.00165));
#1753=CARTESIAN_POINT('',(0.006,-0.000731774913593836,0.00275));
#1754=CARTESIAN_POINT('',(0.006,-0.000731774913593836,0.00275));
#1755=CARTESIAN_POINT('',(0.0055,-0.000731774913593828,0.000599999999999986));
#1756=CARTESIAN_POINT('',(0.006,-0.000731774913593836,0.00275));
#1757=CARTESIAN_POINT('',(0.006,-0.000731774913593829,0.0037));
#1758=CARTESIAN_POINT('',(0.0048,-0.00073177491359382,0.0037));
#1759=CARTESIAN_POINT('',(0.0055,-0.000731774913593829,0.0037));
#1760=CARTESIAN_POINT('',(0.0055,-0.000731774913593828,0.000599999999999986));
#1761=CARTESIAN_POINT('',(0.0048,-0.000731774913593826,0.00275));
#1762=CARTESIAN_POINT('',(0.006,-0.000731774913593836,0.00275));
#1763=CARTESIAN_POINT('',(0.006,-0.000731774913593829,0.0037));
#1764=CARTESIAN_POINT('',(-0.0055,-0.000731774913593749,0.0037));
#1765=CARTESIAN_POINT('',(-0.0048,-0.000731774913593749,0.0037));
#1766=CARTESIAN_POINT('',(-0.0048,-0.000731774913593748,0.0033));
#1767=CARTESIAN_POINT('',(-0.0055,-0.000731774913593746,0.00275));
#1768=CARTESIAN_POINT('',(0.0055,0.000568225086406172,0.000599999999999991));
#1769=CARTESIAN_POINT('',(-0.0055,0.000568225086406262,0.000599999999999991));
#1770=CARTESIAN_POINT('',(-0.0055,0.000568225086406252,0.0033));
#1771=CARTESIAN_POINT('',(0.0055,0.000568225086406172,0.000599999999999991));
#1772=CARTESIAN_POINT('',(0.0055,0.000568225086406172,0.0033));
#1773=CARTESIAN_POINT('',(0.0055,0.000568225086406172,0.0033));
#1774=CARTESIAN_POINT('',(0.0055,0.000568225086406172,0.0033));
#1775=CARTESIAN_POINT('',(0.0045,0.00206822508640618,0.0024));
#1776=CARTESIAN_POINT('',(0.0045,0.00206822508640618,-3.90312782094781E-18));
#1777=CARTESIAN_POINT('',(0.00425,0.00206822508640618,-3.90312782094781E-18));
#1778=CARTESIAN_POINT('',(0.0015,0.0020682250864062,0.0024));
#1779=CARTESIAN_POINT('',(0.0015,0.0020682250864062,-3.90312782094781E-18));
#1780=CARTESIAN_POINT('',(0.00125,0.0020682250864062,-3.90312782094781E-18));
#1781=CARTESIAN_POINT('',(3.46944695195361E-18,0.00206822508640621,0.0024));
#1782=CARTESIAN_POINT('',(3.46944695195361E-18,0.00206822508640621,-3.90312782094781E-18));
#1783=CARTESIAN_POINT('',(-0.000249999999999997,0.00206822508640621,-3.90312782094781E-18));
#1784=CARTESIAN_POINT('',(-0.0052,0.00346822508640624,0.0015));
#1785=CARTESIAN_POINT('',(0.006,0.00346822508640616,0.0015));
#1786=CARTESIAN_POINT('',(0.006,0.00346822508640617,0.0015));
#1787=CARTESIAN_POINT('',(0.006,0.00346822508640617,1.3010426069826E-18));
#1788=CARTESIAN_POINT('',(-0.006,0.00346822508640625,1.3010426069826E-18));
#1789=CARTESIAN_POINT('',(0.0052,0.00346822508640617,1.3010426069826E-18));
#1790=CARTESIAN_POINT('',(0.0052,0.00346822508640617,1.3010426069826E-18));
#1791=CARTESIAN_POINT('',(0.0052,0.00346822508640617,0.0015));
#1792=CARTESIAN_POINT('',(-0.0052,0.00346822508640624,0.0015));
#1793=CARTESIAN_POINT('',(-0.003,0.00206822508640623,0.0024));
#1794=CARTESIAN_POINT('',(-0.003,0.00206822508640623,-3.90312782094781E-18));
#1795=CARTESIAN_POINT('',(-0.00325,0.00206822508640623,-3.90312782094781E-18));
#1796=CARTESIAN_POINT('',(-0.0045,0.00206822508640625,0.0024));
#1797=CARTESIAN_POINT('',(-0.0045,0.00206822508640624,-3.90312782094781E-18));
#1798=CARTESIAN_POINT('',(-0.00475,0.00206822508640624,-3.90312782094781E-18));
#1799=CARTESIAN_POINT('',(-0.0015,0.00206822508640622,0.0024));
#1800=CARTESIAN_POINT('',(-0.0015,0.00206822508640622,-3.90312782094781E-18));
#1801=CARTESIAN_POINT('',(-0.00175,0.00206822508640622,-3.90312782094781E-18));
#1802=CARTESIAN_POINT('',(0.003,0.00206822508640619,0.0024));
#1803=CARTESIAN_POINT('',(0.003,0.00206822508640619,-3.90312782094781E-18));
#1804=CARTESIAN_POINT('',(0.00275,0.00206822508640619,-3.90312782094781E-18));
#1805=CARTESIAN_POINT('',(-0.006,-0.00253177491359375,0.0037));
#1806=CARTESIAN_POINT('',(-0.006,-0.00253177491359375,0.0037));
#1807=CARTESIAN_POINT('',(-0.006,-0.00253177491359375,0.00275));
#1808=CARTESIAN_POINT('',(-0.006,-0.00253177491359375,0.0037));
#1809=CARTESIAN_POINT('',(0.006,-0.00253177491359383,0.00275));
#1810=CARTESIAN_POINT('',(-0.0055,-0.00253177491359375,0.00275));
#1811=CARTESIAN_POINT('',(-0.0055,-0.00253177491359374,0.00059999999999998));
#1812=CARTESIAN_POINT('',(0.0055,-0.00253177491359383,0.00059999999999998));
#1813=CARTESIAN_POINT('',(0.006,-0.00253177491359383,0.0037));
#1814=CARTESIAN_POINT('',(0.006,-0.00253177491359383,0.0037));
#1815=CARTESIAN_POINT('',(-0.006,-0.00253177491359375,0.0037));
#1816=CARTESIAN_POINT('',(0.006,-0.000731774913593836,0.00275));
#1817=CARTESIAN_POINT('',(0.006,-0.000731774913593836,0.00275));
#1818=CARTESIAN_POINT('',(-0.0055,-0.000731774913593746,0.00275));
#1819=CARTESIAN_POINT('',(-0.006,-0.000731774913593746,0.00275));
#1820=CARTESIAN_POINT('',(-0.006,-0.000731774913593746,0.00275));
#1821=CARTESIAN_POINT('',(-0.006,-0.000731774913593743,0.00195));
#1822=CARTESIAN_POINT('',(0.006,-0.000731774913593833,0.00195));
#1823=CARTESIAN_POINT('',(-0.0055,-0.000731774913593743,0.00195));
#1824=CARTESIAN_POINT('',(-0.0055,-0.000731774913593738,0.000599999999999986));
#1825=CARTESIAN_POINT('',(0.006,-0.00253177491359383,0.00195));
#1826=CARTESIAN_POINT('',(-0.006,-0.00253177491359375,0.00195));
#1827=CARTESIAN_POINT('',(-0.006,-0.00253177491359375,0.00195));
#1828=CARTESIAN_POINT('',(0.006,-0.00253177491359383,0.00195));
#1829=CARTESIAN_POINT('',(-0.0055,-0.00253177491359375,0.00195));
#1830=CARTESIAN_POINT('',(-0.0055,0.000568225086406257,0.00195));
#1831=CARTESIAN_POINT('',(0.006,-0.00253177491359383,0.00275));
#1832=CARTESIAN_POINT('',(-0.006,-0.00253177491359375,0.00275));
#1833=CARTESIAN_POINT('',(-0.0055,0.000568225086406254,0.00275));
#1834=CARTESIAN_POINT('',(-0.006,-0.00253177491359375,0.0037));
#1835=CARTESIAN_POINT('',(0.006,-0.00253177491359383,0.0037));
#1836=CARTESIAN_POINT('',(0.006,-0.00253177491359383,-2.08166817117217E-17));
#1837=CARTESIAN_POINT('',(0.0055,-0.00253177491359383,0.00059999999999998));
#1838=CARTESIAN_POINT('',(-0.0055,-0.00253177491359374,0.00059999999999998));
#1839=CARTESIAN_POINT('',(-0.006,-0.00253177491359375,0.0037));
#1840=CARTESIAN_POINT('',(-0.006,-0.00253177491359374,-2.08166817117217E-17));
#1841=CARTESIAN_POINT('',(-0.006,-0.00253177491359374,-2.08166817117217E-17));
#1842=CARTESIAN_POINT('',(-0.0055,0.000568225086406262,0.000599999999999991));
#1843=CARTESIAN_POINT('',(-0.0055,0.000568225086406252,0.0033));
#1844=CARTESIAN_POINT('',(-0.0055,0.00246822508640625,0.0033));
#1845=CARTESIAN_POINT('',(-0.0055,0.00246822508640625,0.0033));
#1846=CARTESIAN_POINT('',(-0.0055,0.00246822508640625,0.0037));
#1847=CARTESIAN_POINT('',(-0.0055,0.00246822508640625,0.0037));
#1848=CARTESIAN_POINT('',(0.0048,0.00246822508640617,0.0033));
#1849=CARTESIAN_POINT('',(0.0048,0.00246822508640617,0.0037));
#1850=CARTESIAN_POINT('',(0.0048,0.00246822508640617,0.0037));
#1851=CARTESIAN_POINT('',(0.0048,0.000568225086406177,0.0033));
#1852=CARTESIAN_POINT('',(0.0048,0.00246822508640617,0.0033));
#1853=CARTESIAN_POINT('',(0.0048,0.00246822508640617,0.0033));
#1854=CARTESIAN_POINT('',(-0.0052,0.00246822508640625,0.0021));
#1855=CARTESIAN_POINT('',(0.006,0.00246822508640616,0.0021));
#1856=CARTESIAN_POINT('',(0.006,0.00246822508640616,0.0021));
#1857=CARTESIAN_POINT('',(0.0052,0.00412998979228853,0.00110294117647059));
#1858=CARTESIAN_POINT('',(0.0052,0.00246822508640617,0.0021));
#1859=CARTESIAN_POINT('',(-0.0052,0.00246822508640625,0.0021));
#1860=CARTESIAN_POINT('',(0.0052,0.00346822508640617,1.3010426069826E-18));
#1861=CARTESIAN_POINT('',(0.0052,0.00346822508640617,1.3010426069826E-18));
#1862=CARTESIAN_POINT('',(0.0052,0.00246822508640617,-2.16840434497101E-18));
#1863=CARTESIAN_POINT('',(0.0052,0.00246822508640617,-2.16840434497101E-18));
#1864=CARTESIAN_POINT('',(0.006,-0.00253177491359383,0.0037));
#1865=CARTESIAN_POINT('',(0.006,0.00246822508640617,-2.16840434497101E-18));
#1866=CARTESIAN_POINT('',(0.006,0.00246822508640616,0.0037));
#1867=CARTESIAN_POINT('',(0.006,0.00246822508640616,0.0037));
#1868=CARTESIAN_POINT('',(0.006,0.00246822508640616,0.0037));
#1869=CARTESIAN_POINT('',(-0.0048,0.00246822508640625,0.0033));
#1870=CARTESIAN_POINT('',(-0.0048,0.00246822508640625,0.0037));
#1871=CARTESIAN_POINT('',(-0.0048,0.00246822508640625,0.0037));
#1872=CARTESIAN_POINT('',(-0.0048,0.00246822508640625,0.0033));
#1873=CARTESIAN_POINT('',(-0.0048,0.00246822508640625,0.0033));
#1874=CARTESIAN_POINT('',(-0.0048,0.000568225086406252,0.0033));
#1875=CARTESIAN_POINT('',(0.0055,0.000568225086406172,0.000599999999999991));
#1876=CARTESIAN_POINT('',(0.0055,0.00246822508640617,0.0037));
#1877=CARTESIAN_POINT('',(0.0055,0.00246822508640617,0.0037));
#1878=CARTESIAN_POINT('',(0.0055,0.00246822508640617,0.0033));
#1879=CARTESIAN_POINT('',(0.0055,0.00246822508640617,0.0033));
#1880=CARTESIAN_POINT('',(0.0055,0.000568225086406172,0.0033));
#1881=CARTESIAN_POINT('',(-0.006,0.00246822508640625,0.0037));
#1882=CARTESIAN_POINT('',(-0.006,0.00246822508640625,0.0037));
#1883=CARTESIAN_POINT('',(-0.006,0.00246822508640625,0.0037));
#1884=CARTESIAN_POINT('',(-0.006,0.00246822508640625,0.0037));
#1885=CARTESIAN_POINT('',(-0.006,0.00246822508640625,0.0037));
#1886=CARTESIAN_POINT('',(-0.006,0.00246822508640625,0.0037));
#1887=CARTESIAN_POINT('',(0.0055,0.000568225086406172,0.0033));
#1888=CARTESIAN_POINT('',(0.0055,0.00246822508640617,0.0033));
#1889=CARTESIAN_POINT('',(0.0055,0.000568225086406172,0.0033));
#1890=CARTESIAN_POINT('',(0.0055,0.00246822508640617,0.0033));
#1891=CARTESIAN_POINT('',(-0.006,0.00246822508640626,-2.16840434497101E-18));
#1892=CARTESIAN_POINT('',(-0.006,0.00246822508640626,-2.16840434497101E-18));
#1893=CARTESIAN_POINT('',(-0.006,0.00346822508640625,1.3010426069826E-18));
#1894=CARTESIAN_POINT('',(-0.0052,0.00346822508640624,1.3010426069826E-18));
#1895=CARTESIAN_POINT('',(-0.0052,0.00346822508640624,1.3010426069826E-18));
#1896=CARTESIAN_POINT('',(-0.0052,0.00346822508640624,1.3010426069826E-18));
#1897=CARTESIAN_POINT('',(-0.0052,0.00246822508640626,-2.16840434497101E-18));
#1898=CARTESIAN_POINT('',(-0.006,0.00246822508640626,-2.16840434497101E-18));
#1899=CARTESIAN_POINT('',(-0.0052,0.00346822508640624,0.0015));
#1900=CARTESIAN_POINT('',(-0.006,0.00346822508640626,0.0015));
#1901=CARTESIAN_POINT('',(-0.006,0.00346822508640626,0.0015));
#1902=CARTESIAN_POINT('',(-0.0052,0.00346822508640624,0.0015));
#1903=CARTESIAN_POINT('',(-0.0052,0.00346822508640624,0.0015));
#1904=CARTESIAN_POINT('',(-0.0052,0.00346822508640624,0.0015));
#1905=CARTESIAN_POINT('',(-0.006,-0.00253177491359375,0.0037));
#1906=CARTESIAN_POINT('',(-0.006,0.00246822508640625,0.0037));
#1907=CARTESIAN_POINT('',(-0.006,0.00246822508640625,0.0021));
#1908=CARTESIAN_POINT('',(-0.006,0.00246822508640625,0.0021));
#1909=CARTESIAN_POINT('',(-0.006,0.00246822508640625,0.0037));
#1910=CARTESIAN_POINT('',(-0.0052,0.00246822508640626,-2.16840434497101E-18));
#1911=CARTESIAN_POINT('',(-0.0052,0.00246822508640625,0.0021));
#1912=CARTESIAN_POINT('',(-0.0052,0.00246822508640625,0.0021));
#1913=CARTESIAN_POINT('',(-0.0052,0.00346822508640624,1.3010426069826E-18));
#1914=CARTESIAN_POINT('',(-0.0052,0.00246822508640625,0.0021));
#1915=CARTESIAN_POINT('',(-0.0052,0.00246822508640625,0.0021));
#1916=MECHANICAL_DESIGN_GEOMETRIC_PRESENTATION_REPRESENTATION('',(#1057,
#234,#235,#236,#237,#238,#239,#240,#241,#242,#243,#244,#245,#246,#247,#248,
#249,#250,#251,#252,#253,#254,#255,#256,#257,#258,#259,#260,#261,#262,#263,
#264,#265,#266),#1917);
#1917=(
GEOMETRIC_REPRESENTATION_CONTEXT(3)
GLOBAL_UNCERTAINTY_ASSIGNED_CONTEXT((#1918))
GLOBAL_UNIT_ASSIGNED_CONTEXT((#1921,#1920,#1919))
REPRESENTATION_CONTEXT('S7B-ZR','TOP_LEVEL_ASSEMBLY_PART')
);
#1918=UNCERTAINTY_MEASURE_WITH_UNIT(LENGTH_MEASURE(1.E-6),#1921,
'DISTANCE_ACCURACY_VALUE','Maximum Tolerance applied to model');
#1919=(
NAMED_UNIT(*)
SI_UNIT($,.STERADIAN.)
SOLID_ANGLE_UNIT()
);
#1920=(
NAMED_UNIT(*)
PLANE_ANGLE_UNIT()
SI_UNIT($,.RADIAN.)
);
#1921=(
LENGTH_UNIT()
NAMED_UNIT(*)
SI_UNIT($,.METRE.)
);
#1922=PRODUCT_DEFINITION_SHAPE('','',#1923);
#1923=PRODUCT_DEFINITION('','',#1925,#1924);
#1924=PRODUCT_DEFINITION_CONTEXT('',#1931,'design');
#1925=PRODUCT_DEFINITION_FORMATION_WITH_SPECIFIED_SOURCE('','',#1927,
 .NOT_KNOWN.);
#1926=PRODUCT_RELATED_PRODUCT_CATEGORY('','',(#1927));
#1927=PRODUCT('S7B-ZR','S7B-ZR','S7B-ZR',(#1929));
#1928=PRODUCT_CATEGORY('','');
#1929=PRODUCT_CONTEXT('',#1931,'mechanical');
#1930=APPLICATION_PROTOCOL_DEFINITION('international standard',
'automotive_design',2010,#1931);
#1931=APPLICATION_CONTEXT(
'core data for automotive mechanical design processes');
ENDSEC;
END-ISO-10303-21;
